ISO-10303-21;
HEADER;
FILE_DESCRIPTION(('STEP AP203'),
    '1');
FILE_NAME('SpaceMouse',
    '2026-03-09T19:53:10',
    ('tvali'),
    (''),
    'C3D Converter',
    'C3D Toolkit',
    '');
/**/
FILE_SCHEMA(('CONFIG_CONTROL_DESIGN'));
ENDSEC;

DATA;
#1=PRODUCT_DEFINITION('','UNSPECIFIED',#15,#18);
#2=SHAPE_DEFINITION_REPRESENTATION(#13,#3);
#3=SHAPE_REPRESENTATION('NONE',(#4,#40),#8);
#4=AXIS2_PLACEMENT_3D('',#5,#6,#7);
#5=CARTESIAN_POINT('',(0.,0.,0.));
#6=DIRECTION('',(0.,0.,1.));
#7=DIRECTION('',(1.,0.,0.));
#8=(GEOMETRIC_REPRESENTATION_CONTEXT(3)GLOBAL_UNCERTAINTY_ASSIGNED_CONTEXT((#10))
GLOBAL_UNIT_ASSIGNED_CONTEXT((#9,#11,#12))REPRESENTATION_CONTEXT('NONE','NONE'));
#9=(LENGTH_UNIT()NAMED_UNIT(*)SI_UNIT(.MILLI.,.METRE.));
#10=UNCERTAINTY_MEASURE_WITH_UNIT(LENGTH_MEASURE(1.E-5),#9,'NONE','NONE');
#11=(NAMED_UNIT(*)PLANE_ANGLE_UNIT()SI_UNIT($,.RADIAN.));
#12=(NAMED_UNIT(*)SI_UNIT($,.STERADIAN.)SOLID_ANGLE_UNIT());
#13=PRODUCT_DEFINITION_SHAPE('NONE','NONE',#1);
#14=MECHANICAL_CONTEXT('NONE',#19,'mechanical');
#15=PRODUCT_DEFINITION_FORMATION_WITH_SPECIFIED_SOURCE('ANY','UNSPECIFIED',#16,.NOT_KNOWN.);
#16=PRODUCT('','\X2\04210431043E0440043A0430\X0\','NONE',(#14));
#17=PRODUCT_RELATED_PRODUCT_CATEGORY('assembly','',(#16));
#18=DESIGN_CONTEXT('detailed design',#19,'design');
#19=APPLICATION_CONTEXT('configuration controlled 3d designs of mechanical parts and assemblies');
#20=APPLICATION_PROTOCOL_DEFINITION('international standard','config_control_design',
1994,#19);
#21=CC_DESIGN_DATE_AND_TIME_ASSIGNMENT(#22,#26,(#1));
#22=DATE_AND_TIME(#23,#24);
#23=CALENDAR_DATE(0,1,1);
#24=LOCAL_TIME(0,0,0.,#25);
#25=COORDINATED_UNIVERSAL_TIME_OFFSET(0,0,.AHEAD.);
#26=DATE_TIME_ROLE('creation_date');
#27=CC_DESIGN_APPROVAL(#28,(#1));
#28=APPROVAL(#29,'UNSPECIFIED');
#29=APPROVAL_STATUS('not_yet_approved');
#30=APPROVAL_DATE_TIME(#31,#28);
#31=DATE_AND_TIME(#32,#33);
#32=CALENDAR_DATE(0,1,1);
#33=LOCAL_TIME(0,0,0.,#34);
#34=COORDINATED_UNIVERSAL_TIME_OFFSET(0,0,.AHEAD.);
#35=PERSON('UNSPECIFIED','tvali','UNSPECIFIED',('UNSPECIFIED'),('UNSPECIFIED'),(
'UNSPECIFIED'));
#36=ORGANIZATION('UNSPECIFIED','UNSPECIFIED','UNSPECIFIED');
#37=PERSON_AND_ORGANIZATION(#35,#36);
#38=PERSON_AND_ORGANIZATION_ROLE('creator');
#39=CC_DESIGN_PERSON_AND_ORGANIZATION_ASSIGNMENT(#37,#38,(#15,#1));
#40=AXIS2_PLACEMENT_3D('',#41,#42,#43);
#41=CARTESIAN_POINT('',(4.46996081688784E-15,-1.80542555778746E-15,-9.5));
#42=DIRECTION('',(0.,0.,1.));
#43=DIRECTION('',(1.,0.,0.));
#44=PRODUCT_DEFINITION('','UNSPECIFIED',#62,#65);
#45=SHAPE_DEFINITION_REPRESENTATION(#60,#46);
#46=SHAPE_REPRESENTATION('NONE',(#4),#8);
#47=MANIFOLD_SOLID_BREP('',#48);
#48=CLOSED_SHELL('',(#109,#110,#111,#112,#113,#114,#115,#116,#117,#118));
#49=COLOUR_RGB('',0.564705882352941,0.564705882352941,0.564705882352941);
#50=FILL_AREA_STYLE_COLOUR('',#49);
#51=FILL_AREA_STYLE($,(#50));
#52=SURFACE_STYLE_FILL_AREA(#51);
#53=SURFACE_SIDE_STYLE('',(#52));
#54=SURFACE_STYLE_USAGE(.BOTH.,#53);
#55=PRESENTATION_STYLE_ASSIGNMENT((#54));
#56=MECHANICAL_DESIGN_GEOMETRIC_PRESENTATION_REPRESENTATION('NONE',(#57),#8);
#57=STYLED_ITEM('',(#55),#47);
#58=ADVANCED_BREP_SHAPE_REPRESENTATION('NONE',(#47),#8);
#59=SHAPE_REPRESENTATION_RELATIONSHIP('','',#46,#58);
#60=PRODUCT_DEFINITION_SHAPE('NONE','NONE',#44);
#61=MECHANICAL_CONTEXT('NONE',#66,'mechanical');
#62=PRODUCT_DEFINITION_FORMATION_WITH_SPECIFIED_SOURCE('ANY','UNSPECIFIED',#63,.NOT_KNOWN.);
#63=PRODUCT('','Base','NONE',(#61));
#64=PRODUCT_RELATED_PRODUCT_CATEGORY('detail','',(#63));
#65=DESIGN_CONTEXT('detailed design',#66,'design');
#66=APPLICATION_CONTEXT('configuration controlled 3d designs of mechanical parts and assemblies');
#67=APPLICATION_PROTOCOL_DEFINITION('international standard','config_control_design',
1994,#66);
#68=CC_DESIGN_DATE_AND_TIME_ASSIGNMENT(#69,#73,(#44));
#69=DATE_AND_TIME(#70,#71);
#70=CALENDAR_DATE(0,1,1);
#71=LOCAL_TIME(0,0,0.,#72);
#72=COORDINATED_UNIVERSAL_TIME_OFFSET(0,0,.AHEAD.);
#73=DATE_TIME_ROLE('creation_date');
#74=CC_DESIGN_APPROVAL(#75,(#44));
#75=APPROVAL(#76,'UNSPECIFIED');
#76=APPROVAL_STATUS('not_yet_approved');
#77=APPROVAL_DATE_TIME(#78,#75);
#78=DATE_AND_TIME(#79,#80);
#79=CALENDAR_DATE(0,1,1);
#80=LOCAL_TIME(0,0,0.,#81);
#81=COORDINATED_UNIVERSAL_TIME_OFFSET(0,0,.AHEAD.);
#82=PERSON('UNSPECIFIED','tvali','UNSPECIFIED',('UNSPECIFIED'),('UNSPECIFIED'),(
'UNSPECIFIED'));
#83=ORGANIZATION('UNSPECIFIED','UNSPECIFIED','UNSPECIFIED');
#84=PERSON_AND_ORGANIZATION(#82,#83);
#85=PERSON_AND_ORGANIZATION_ROLE('creator');
#86=CC_DESIGN_PERSON_AND_ORGANIZATION_ASSIGNMENT(#84,#85,(#62,#44));
#87=ITEM_DEFINED_TRANSFORMATION('','',#4,#40);
#88=(REPRESENTATION_RELATIONSHIP('','',#46,#3)REPRESENTATION_RELATIONSHIP_WITH_TRANSFORMATION(
#87)SHAPE_REPRESENTATION_RELATIONSHIP());
#89=NEXT_ASSEMBLY_USAGE_OCCURRENCE('ANY','\X2\04210431043E0440043A0430\X0\','',#1,
#44,'');
#90=CC_DESIGN_SECURITY_CLASSIFICATION(#91,(#89));
#91=SECURITY_CLASSIFICATION('','',#92);
#92=SECURITY_CLASSIFICATION_LEVEL('unclassified');
#93=CC_DESIGN_DATE_AND_TIME_ASSIGNMENT(#94,#98,(#91));
#94=DATE_AND_TIME(#95,#96);
#95=CALENDAR_DATE(0,1,1);
#96=LOCAL_TIME(0,0,0.,#97);
#97=COORDINATED_UNIVERSAL_TIME_OFFSET(0,0,.AHEAD.);
#98=DATE_TIME_ROLE('classification_date');
#99=CC_DESIGN_APPROVAL(#100,(#91));
#100=APPROVAL(#101,'UNSPECIFIED');
#101=APPROVAL_STATUS('not_yet_approved');
#102=APPROVAL_DATE_TIME(#103,#100);
#103=DATE_AND_TIME(#104,#105);
#104=CALENDAR_DATE(0,1,1);
#105=LOCAL_TIME(0,0,0.,#106);
#106=COORDINATED_UNIVERSAL_TIME_OFFSET(0,0,.AHEAD.);
#107=PRODUCT_DEFINITION_SHAPE('NONE','NONE',#89);
#108=CONTEXT_DEPENDENT_SHAPE_REPRESENTATION(#88,#107);
#109=ADVANCED_FACE('',(#119),#121,.T.);
#110=ADVANCED_FACE('',(#126,#128),#130,.T.);
#111=ADVANCED_FACE('',(#135,#137),#139,.F.);
#112=ADVANCED_FACE('',(#144,#146),#148,.T.);
#113=ADVANCED_FACE('',(#153,#155),#157,.F.);
#114=ADVANCED_FACE('',(#162,#164),#166,.T.);
#115=ADVANCED_FACE('',(#171,#173),#175,.T.);
#116=ADVANCED_FACE('',(#180,#182),#184,.T.);
#117=ADVANCED_FACE('',(#189,#191),#193,.F.);
#118=ADVANCED_FACE('',(#198),#200,.T.);
#119=FACE_BOUND('',#120,.T.);
#120=EDGE_LOOP('',(#205));
#121=PLANE('',#122);
#122=AXIS2_PLACEMENT_3D('',#123,#124,#125);
#123=CARTESIAN_POINT('',(1.53080849893419E-16,-1.53080849893419E-16,2.5));
#124=DIRECTION('',(-6.12323399573677E-17,6.12323399573677E-17,-1.));
#125=DIRECTION('',(-1.,-4.25200683263545E-33,6.12323399573677E-17));
#126=FACE_OUTER_BOUND('',#127,.T.);
#127=EDGE_LOOP('',(#206));
#128=FACE_OUTER_BOUND('',#129,.T.);
#129=EDGE_LOOP('',(#207));
#130=CONICAL_SURFACE('',#131,25.5622218067503,0.831099995853496);
#131=AXIS2_PLACEMENT_3D('',#132,#133,#134);
#132=CARTESIAN_POINT('',(1.69108740558264E-16,-1.69108740558264E-16,2.76175531877443));
#133=DIRECTION('',(6.12323399573677E-17,-6.12323399573677E-17,1.));
#134=DIRECTION('',(1.,-1.87442842245435E-33,-6.12323399573677E-17));
#135=FACE_OUTER_BOUND('',#136,.T.);
#136=EDGE_LOOP('',(#208));
#137=FACE_OUTER_BOUND('',#138,.T.);
#138=EDGE_LOOP('',(#209));
#139=SURFACE_OF_REVOLUTION('',#140,#141);
#140=B_SPLINE_CURVE_WITH_KNOTS('',3,
(#210,#211,#212,#213,#214,#215,#216,#217,#218,#219,#220,#221,#222,#223,#224,#225,
#226,#227,#228,#229,#230,#231,#232,#233,#234,#235,#236,#237,#238,#239,#240,#241,
#242,#243,#244,#245,#246,#247,#248,#249,#250,#251,#252,#253,#254,#255,#256,#257,
#258,#259,#260),
.UNSPECIFIED.,.F.,.F.,
(4,1,1,1,1,1,1,1,1,1,1,1,1,1,1,1,1,1,1,1,1,1,1,1,1,1,1,1,1,1,1,1,1,1,1,1,1,1,1,1,
1,1,1,1,1,1,1,1,4),
(0.,0.0149261625637159,0.0291655858508935,0.0427182698615327,0.0555225388444161,
0.0686248150516537,0.0822816435172334,0.0968799272806522,0.112393564215205,0.12893076497921,
0.14655710691694,0.165363230355813,0.185452400499909,0.206953027049043,0.230124415930975,
0.255359052442363,0.284155599420486,0.31796552226892,0.352233919451681,0.383925700176631,
0.410394551819997,0.435105937729051,0.458989430527292,0.482545207300581,0.506059997383006,
0.529792843748987,0.554159750549446,0.579844280099444,0.608598819116035,0.643274445865235,
0.679077595425842,0.712865518490487,0.740615392953156,0.765797139271868,0.789130383989791,
0.810931249740558,0.831366695358522,0.850549462427939,0.868570761882374,0.885510662117271,
0.90144254869228,0.916430692899175,0.930538045630647,0.944077813814506,0.956940148186582,
0.968829615936192,0.979746217063337,0.989947098585305,1.),
.UNSPECIFIED.);
#141=AXIS1_PLACEMENT('',#142,#143);
#142=CARTESIAN_POINT('',(1.91351062366774E-15,-1.91351062366774E-15,31.25));
#143=DIRECTION('',(-6.12323399573677E-17,6.12323399573677E-17,-1.));
#144=FACE_BOUND('',#145,.T.);
#145=EDGE_LOOP('',(#261));
#146=FACE_BOUND('',#147,.T.);
#147=EDGE_LOOP('',(#262));
#148=PLANE('',#149);
#149=AXIS2_PLACEMENT_3D('',#150,#151,#152);
#150=CARTESIAN_POINT('',(-4.84755026258312E-28,4.84755026258312E-28,-7.91544607636752E-12));
#151=DIRECTION('',(-6.12323399573677E-17,6.12323399573677E-17,-1.));
#152=DIRECTION('',(-1.,-5.42533572856566E-33,6.1232339957371E-17));
#153=FACE_OUTER_BOUND('',#154,.T.);
#154=EDGE_LOOP('',(#263));
#155=FACE_OUTER_BOUND('',#156,.T.);
#156=EDGE_LOOP('',(#264));
#157=SURFACE_OF_REVOLUTION('',#158,#159);
#158=(BOUNDED_CURVE()B_SPLINE_CURVE(2,
(#265,#266,#267),
.UNSPECIFIED.,.F.,.F.)B_SPLINE_CURVE_WITH_KNOTS((3,3),
(0.,1.),
.UNSPECIFIED.)CURVE()GEOMETRIC_REPRESENTATION_ITEM()RATIONAL_B_SPLINE_CURVE((1.,
2.9515019751777,1.))REPRESENTATION_ITEM(''));
#159=AXIS1_PLACEMENT('',#160,#161);
#160=CARTESIAN_POINT('',(1.91351062366774E-15,-1.91351062366774E-15,31.25));
#161=DIRECTION('',(-6.12323399573677E-17,6.12323399573677E-17,-1.));
#162=FACE_BOUND('',#163,.T.);
#163=EDGE_LOOP('',(#268));
#164=FACE_BOUND('',#165,.T.);
#165=EDGE_LOOP('',(#269));
#166=PLANE('',#167);
#167=AXIS2_PLACEMENT_3D('',#168,#169,#170);
#168=CARTESIAN_POINT('',(2.75545529808154E-16,-2.75545529808154E-16,4.5));
#169=DIRECTION('',(6.12323399573677E-17,-6.12323399573677E-17,1.));
#170=DIRECTION('',(-1.,-2.15181031978981E-33,6.12323399573677E-17));
#171=FACE_OUTER_BOUND('',#172,.T.);
#172=EDGE_LOOP('',(#270));
#173=FACE_OUTER_BOUND('',#174,.T.);
#174=EDGE_LOOP('',(#271));
#175=CONICAL_SURFACE('',#176,14.5,0.165148677414627);
#176=AXIS2_PLACEMENT_3D('',#177,#178,#179);
#177=CARTESIAN_POINT('',(6.4293956955236E-16,-6.4293956955236E-16,10.5));
#178=DIRECTION('',(6.12323399573676E-17,-6.12323399573677E-17,1.));
#179=DIRECTION('',(1.,-1.02855019466681E-32,-6.12323399573676E-17));
#180=FACE_BOUND('',#181,.T.);
#181=EDGE_LOOP('',(#272));
#182=FACE_BOUND('',#183,.T.);
#183=EDGE_LOOP('',(#273));
#184=PLANE('',#185);
#185=AXIS2_PLACEMENT_3D('',#186,#187,#188);
#186=CARTESIAN_POINT('',(1.01033360929657E-15,-1.01033360929657E-15,16.5));
#187=DIRECTION('',(6.12323399573677E-17,-6.12323399573677E-17,1.));
#188=DIRECTION('',(-1.,1.02855019466681E-32,6.12323399573676E-17));
#189=FACE_OUTER_BOUND('',#190,.T.);
#190=EDGE_LOOP('',(#274));
#191=FACE_OUTER_BOUND('',#192,.T.);
#192=EDGE_LOOP('',(#275));
#193=CYLINDRICAL_SURFACE('',#194,7.00000000000001);
#194=AXIS2_PLACEMENT_3D('',#195,#196,#197);
#195=CARTESIAN_POINT('',(9.49101269339199E-16,-9.49101269339199E-16,15.5));
#196=DIRECTION('',(-6.12323399573677E-17,6.12323399573677E-17,-1.));
#197=DIRECTION('',(-1.,-3.74939945665464E-33,6.12323399573677E-17));
#198=FACE_BOUND('',#199,.T.);
#199=EDGE_LOOP('',(#276));
#200=PLANE('',#201);
#201=AXIS2_PLACEMENT_3D('',#202,#203,#204);
#202=CARTESIAN_POINT('',(9.49101269339199E-16,-9.49101269339199E-16,15.5));
#203=DIRECTION('',(6.12323399573677E-17,-6.12323399573677E-17,1.));
#204=DIRECTION('',(-1.,-3.74939945665464E-33,6.12323399573677E-17));
#205=ORIENTED_EDGE('',*,*,#277,.T.);
#206=ORIENTED_EDGE('',*,*,#277,.F.);
#207=ORIENTED_EDGE('',*,*,#278,.T.);
#208=ORIENTED_EDGE('',*,*,#278,.F.);
#209=ORIENTED_EDGE('',*,*,#279,.T.);
#210=CARTESIAN_POINT('',(-25.8490666251201,-1.85136631095314E-16,3.0235106354618));
#211=CARTESIAN_POINT('',(-26.1919865344969,-2.042978240956E-16,3.33643666464226));
#212=CARTESIAN_POINT('',(-26.8170139081596,-2.39030368715392E-16,3.90366216417361));
#213=CARTESIAN_POINT('',(-27.623326498603,-2.83338835282174E-16,4.62727433704878));
#214=CARTESIAN_POINT('',(-28.3078739803476,-3.20516004770583E-16,5.2344235904383));
#215=CARTESIAN_POINT('',(-28.9088551580206,-3.52757028718342E-16,5.76095946952126));
#216=CARTESIAN_POINT('',(-29.4565268330533,-3.81753012558841E-16,6.23449982190183));
#217=CARTESIAN_POINT('',(-29.977479850824,-4.08926796886602E-16,6.67828139789061));
#218=CARTESIAN_POINT('',(-30.4786449967349,-4.34622032947613E-16,7.09791644823984));
#219=CARTESIAN_POINT('',(-30.963251694755,-4.58971862470737E-16,7.49557934239147));
#220=CARTESIAN_POINT('',(-31.4305022218438,-4.81898424244643E-16,7.86999851026696));
#221=CARTESIAN_POINT('',(-31.8804912341614,-5.03364629839212E-16,8.22056825183675));
#222=CARTESIAN_POINT('',(-32.3128949080414,-5.23308999178144E-16,8.54628452125939));
#223=CARTESIAN_POINT('',(-32.7274203712166,-5.41667603994625E-16,8.84610329070807));
#224=CARTESIAN_POINT('',(-33.1242102189323,-5.58390442497914E-16,9.11920796897012));
#225=CARTESIAN_POINT('',(-33.5038254830314,-5.73433268109211E-16,9.36487595457658));
#226=CARTESIAN_POINT('',(-33.8713199870601,-5.86894656661566E-16,9.58471711305145));
#227=CARTESIAN_POINT('',(-34.2305022690962,-5.98723478270762E-16,9.77789643001748));
#228=CARTESIAN_POINT('',(-34.558376547166,-6.07953241497029E-16,9.92862990243897));
#229=CARTESIAN_POINT('',(-34.826156086664,-6.13950382926826E-16,10.026570654564));
#230=CARTESIAN_POINT('',(-35.0165699009466,-6.17051316263057E-16,10.0772127390962));
#231=CARTESIAN_POINT('',(-35.1465445327324,-6.18419045512211E-16,10.0995494528345));
#232=CARTESIAN_POINT('',(-35.2366118857061,-6.18875900562225E-16,10.107010462006));
#233=CARTESIAN_POINT('',(-35.3036379746285,-6.18851953335059E-16,10.1066193741073));
#234=CARTESIAN_POINT('',(-35.3574592781438,-6.18538137578872E-16,10.1014943738802));
#235=CARTESIAN_POINT('',(-35.4065494074408,-6.179787597838E-16,10.0923590412201));
#236=CARTESIAN_POINT('',(-35.4590034430343,-6.17078582922951E-16,10.0776580374453));
#237=CARTESIAN_POINT('',(-35.5230074690743,-6.15589128103035E-16,10.0533333942755));
#238=CARTESIAN_POINT('',(-35.60860842292,-6.13034002138323E-16,10.0116050205682));
#239=CARTESIAN_POINT('',(-35.7318011567868,-6.08459207863542E-16,9.93689296027516));
#240=CARTESIAN_POINT('',(-35.9069933093716,-6.00457356012079E-16,9.80621280242011));
#241=CARTESIAN_POINT('',(-36.1369332327641,-5.87734417153227E-16,9.59843144264013));
#242=CARTESIAN_POINT('',(-36.394225488225,-5.7107821001427E-16,9.32641493713742));
#243=CARTESIAN_POINT('',(-36.6582144540997,-5.51855675677165E-16,9.01248712790314));
#244=CARTESIAN_POINT('',(-36.918435045537,-5.31186047023982E-16,8.67492647502634));
#245=CARTESIAN_POINT('',(-37.1842841556986,-5.08530316989211E-16,8.30493032510712));
#246=CARTESIAN_POINT('',(-37.4572665243956,-4.8386736717739E-16,7.90215378857443));
#247=CARTESIAN_POINT('',(-37.7378153042487,-4.5724375961514E-16,7.46735728102978));
#248=CARTESIAN_POINT('',(-38.0260433079758,-4.28726551463006E-16,7.00163592901238));
#249=CARTESIAN_POINT('',(-38.3220223820264,-3.98381364665788E-16,6.50606142020959));
#250=CARTESIAN_POINT('',(-38.625862316881,-3.662647236787E-16,5.98155686902882));
#251=CARTESIAN_POINT('',(-38.937694513497,-3.32425307464369E-16,5.42891726326017));
#252=CARTESIAN_POINT('',(-39.2576774450022,-2.96903281421093E-16,4.84879855363699));
#253=CARTESIAN_POINT('',(-39.5879535055431,-2.59508702059142E-16,4.23809872756491));
#254=CARTESIAN_POINT('',(-39.9300991371993,-2.20094236240033E-16,3.59441165229471));
#255=CARTESIAN_POINT('',(-40.2829703447013,-1.78817563921681E-16,2.92031243696029));
#256=CARTESIAN_POINT('',(-40.6412843340884,-1.36342461323533E-16,2.22664136987841));
#257=CARTESIAN_POINT('',(-41.0018291087907,-9.31120154949642E-17,1.5206346117067));
#258=CARTESIAN_POINT('',(-41.3711563989762,-4.83892107401352E-17,0.79025578270936));
#259=CARTESIAN_POINT('',(-41.6316764482289,-1.65615921983268E-17,0.270471326260889));
#260=CARTESIAN_POINT('',(-41.7666579634707,4.84437036091584E-28,-7.9114571879642E-12));
#261=ORIENTED_EDGE('',*,*,#280,.T.);
#262=ORIENTED_EDGE('',*,*,#279,.F.);
#263=ORIENTED_EDGE('',*,*,#281,.T.);
#264=ORIENTED_EDGE('',*,*,#280,.F.);
#265=CARTESIAN_POINT('',(-44.,3.29947152185609E-31,-5.38844591624835E-15));
#266=CARTESIAN_POINT('',(-36.3984992233075,-9.40399198102643E-16,15.3578843917673));
#267=CARTESIAN_POINT('',(-24.5,-2.75545529808154E-16,4.5));
#268=ORIENTED_EDGE('',*,*,#281,.F.);
#269=ORIENTED_EDGE('',*,*,#282,.T.);
#270=ORIENTED_EDGE('',*,*,#282,.F.);
#271=ORIENTED_EDGE('',*,*,#283,.T.);
#272=ORIENTED_EDGE('',*,*,#283,.F.);
#273=ORIENTED_EDGE('',*,*,#284,.T.);
#274=ORIENTED_EDGE('',*,*,#284,.F.);
#275=ORIENTED_EDGE('',*,*,#285,.T.);
#276=ORIENTED_EDGE('',*,*,#285,.F.);
#277=EDGE_CURVE('',#286,#286,#287,.T.);
#278=EDGE_CURVE('',#288,#288,#289,.T.);
#279=EDGE_CURVE('',#290,#290,#291,.T.);
#280=EDGE_CURVE('',#292,#292,#293,.T.);
#281=EDGE_CURVE('',#294,#294,#295,.T.);
#282=EDGE_CURVE('',#296,#296,#297,.T.);
#283=EDGE_CURVE('',#298,#298,#299,.T.);
#284=EDGE_CURVE('',#300,#300,#301,.T.);
#285=EDGE_CURVE('',#302,#302,#303,.T.);
#286=VERTEX_POINT('',#304);
#287=CIRCLE('',#305,25.2753769860935);
#288=VERTEX_POINT('',#309);
#289=CIRCLE('',#310,25.8490666274072);
#290=VERTEX_POINT('',#314);
#291=CIRCLE('',#315,41.7666579634707);
#292=VERTEX_POINT('',#319);
#293=CIRCLE('',#320,44.);
#294=VERTEX_POINT('',#324);
#295=CIRCLE('',#325,24.5);
#296=VERTEX_POINT('',#329);
#297=CIRCLE('',#330,13.5);
#298=VERTEX_POINT('',#334);
#299=CIRCLE('',#335,15.5);
#300=VERTEX_POINT('',#339);
#301=CIRCLE('',#340,7.00000000000001);
#302=VERTEX_POINT('',#344);
#303=CIRCLE('',#345,7.00000000000001);
#304=CARTESIAN_POINT('',(-25.2753769860935,-1.53080849893419E-16,2.5));
#305=AXIS2_PLACEMENT_3D('',#306,#307,#308);
#306=CARTESIAN_POINT('',(1.53080849893419E-16,-1.53080849893419E-16,2.5));
#307=DIRECTION('',(-6.12323399573677E-17,6.12323399573677E-17,-1.));
#308=DIRECTION('',(-1.,-4.25200683263545E-33,6.12323399573677E-17));
#309=CARTESIAN_POINT('',(-25.8490666262636,-1.85136631159212E-16,3.02351063650533));
#310=AXIS2_PLACEMENT_3D('',#311,#312,#313);
#311=CARTESIAN_POINT('',(1.8513663122311E-16,-1.8513663122311E-16,3.02351063754887));
#312=DIRECTION('',(-6.12323399573677E-17,6.12323399573677E-17,-1.));
#313=DIRECTION('',(-1.,2.36588101867447E-33,6.12323399573677E-17));
#314=CARTESIAN_POINT('',(-41.7666579634707,4.84481224101471E-28,-7.9121788329302E-12));
#315=AXIS2_PLACEMENT_3D('',#316,#317,#318);
#316=CARTESIAN_POINT('',(-4.84755026258312E-28,4.84755026258312E-28,-7.91544607636752E-12));
#317=DIRECTION('',(-6.12323399573677E-17,6.12323399573677E-17,-1.));
#318=DIRECTION('',(-1.,-5.42533572856566E-33,6.1232339957371E-17));
#319=CARTESIAN_POINT('',(-44.,3.29947152185609E-31,-5.38844591624835E-15));
#320=AXIS2_PLACEMENT_3D('',#321,#322,#323);
#321=CARTESIAN_POINT('',(-4.84755026258312E-28,4.84755026258312E-28,-7.91544607636752E-12));
#322=DIRECTION('',(-6.12323399573677E-17,6.12323399573677E-17,-1.));
#323=DIRECTION('',(-1.,-5.42533572856566E-33,6.1232339957371E-17));
#324=CARTESIAN_POINT('',(-24.5,-2.75545529808154E-16,4.5));
#325=AXIS2_PLACEMENT_3D('',#326,#327,#328);
#326=CARTESIAN_POINT('',(2.75545529808154E-16,-2.75545529808154E-16,4.5));
#327=DIRECTION('',(-6.12323399573677E-17,6.12323399573677E-17,-1.));
#328=DIRECTION('',(-1.,-2.15181031978981E-33,6.12323399573677E-17));
#329=CARTESIAN_POINT('',(-13.5,-2.75545529808154E-16,4.5));
#330=AXIS2_PLACEMENT_3D('',#331,#332,#333);
#331=CARTESIAN_POINT('',(2.75545529808154E-16,-2.75545529808154E-16,4.5));
#332=DIRECTION('',(-6.12323399573677E-17,6.12323399573677E-17,-1.));
#333=DIRECTION('',(-1.,-2.15181031978981E-33,6.12323399573677E-17));
#334=CARTESIAN_POINT('',(-15.5,-1.01033360929657E-15,16.5));
#335=AXIS2_PLACEMENT_3D('',#336,#337,#338);
#336=CARTESIAN_POINT('',(1.01033360929657E-15,-1.01033360929657E-15,16.5));
#337=DIRECTION('',(-6.12323399573677E-17,6.12323399573677E-17,-1.));
#338=DIRECTION('',(-1.,1.02855019466681E-32,6.12323399573676E-17));
#339=CARTESIAN_POINT('',(-7.00000000000001,-1.01033360929657E-15,16.5));
#340=AXIS2_PLACEMENT_3D('',#341,#342,#343);
#341=CARTESIAN_POINT('',(1.01033360929657E-15,-1.01033360929657E-15,16.5));
#342=DIRECTION('',(-6.12323399573677E-17,6.12323399573677E-17,-1.));
#343=DIRECTION('',(-1.,1.02855019466681E-32,6.12323399573676E-17));
#344=CARTESIAN_POINT('',(-7.00000000000001,-9.49101269339199E-16,15.5));
#345=AXIS2_PLACEMENT_3D('',#346,#347,#348);
#346=CARTESIAN_POINT('',(9.49101269339199E-16,-9.49101269339199E-16,15.5));
#347=DIRECTION('',(-6.12323399573677E-17,6.12323399573677E-17,-1.));
#348=DIRECTION('',(-1.,-3.74939945665464E-33,6.12323399573677E-17));
ENDSEC;
END-ISO-10303-21;
