ISO-10303-21;
HEADER;
FILE_DESCRIPTION(('STEP AP203'),
    '1');
FILE_NAME('SpaceMouse',
    '2026-03-09T19:50:08',
    ('tvali'),
    (''),
    'C3D Converter',
    'C3D Toolkit',
    '');
/**/
FILE_SCHEMA(('CONFIG_CONTROL_DESIGN'));
ENDSEC;

DATA;
#1=PRODUCT_DEFINITION('','UNSPECIFIED',#15,#18);
#2=SHAPE_DEFINITION_REPRESENTATION(#13,#3);
#3=SHAPE_REPRESENTATION('NONE',(#4,#40),#8);
#4=AXIS2_PLACEMENT_3D('',#5,#6,#7);
#5=CARTESIAN_POINT('',(0.,0.,0.));
#6=DIRECTION('',(0.,0.,1.));
#7=DIRECTION('',(1.,0.,0.));
#8=(GEOMETRIC_REPRESENTATION_CONTEXT(3)GLOBAL_UNCERTAINTY_ASSIGNED_CONTEXT((#10))
GLOBAL_UNIT_ASSIGNED_CONTEXT((#9,#11,#12))REPRESENTATION_CONTEXT('NONE','NONE'));
#9=(LENGTH_UNIT()NAMED_UNIT(*)SI_UNIT(.MILLI.,.METRE.));
#10=UNCERTAINTY_MEASURE_WITH_UNIT(LENGTH_MEASURE(1.E-5),#9,'NONE','NONE');
#11=(NAMED_UNIT(*)PLANE_ANGLE_UNIT()SI_UNIT($,.RADIAN.));
#12=(NAMED_UNIT(*)SI_UNIT($,.STERADIAN.)SOLID_ANGLE_UNIT());
#13=PRODUCT_DEFINITION_SHAPE('NONE','NONE',#1);
#14=MECHANICAL_CONTEXT('NONE',#19,'mechanical');
#15=PRODUCT_DEFINITION_FORMATION_WITH_SPECIFIED_SOURCE('ANY','UNSPECIFIED',#16,.NOT_KNOWN.);
#16=PRODUCT('','\X2\04210431043E0440043A0430\X0\','NONE',(#14));
#17=PRODUCT_RELATED_PRODUCT_CATEGORY('assembly','',(#16));
#18=DESIGN_CONTEXT('detailed design',#19,'design');
#19=APPLICATION_CONTEXT('configuration controlled 3d designs of mechanical parts and assemblies');
#20=APPLICATION_PROTOCOL_DEFINITION('international standard','config_control_design',
1994,#19);
#21=CC_DESIGN_DATE_AND_TIME_ASSIGNMENT(#22,#26,(#1));
#22=DATE_AND_TIME(#23,#24);
#23=CALENDAR_DATE(0,1,1);
#24=LOCAL_TIME(0,0,0.,#25);
#25=COORDINATED_UNIVERSAL_TIME_OFFSET(0,0,.AHEAD.);
#26=DATE_TIME_ROLE('creation_date');
#27=CC_DESIGN_APPROVAL(#28,(#1));
#28=APPROVAL(#29,'UNSPECIFIED');
#29=APPROVAL_STATUS('not_yet_approved');
#30=APPROVAL_DATE_TIME(#31,#28);
#31=DATE_AND_TIME(#32,#33);
#32=CALENDAR_DATE(0,1,1);
#33=LOCAL_TIME(0,0,0.,#34);
#34=COORDINATED_UNIVERSAL_TIME_OFFSET(0,0,.AHEAD.);
#35=PERSON('UNSPECIFIED','tvali','UNSPECIFIED',('UNSPECIFIED'),('UNSPECIFIED'),(
'UNSPECIFIED'));
#36=ORGANIZATION('UNSPECIFIED','UNSPECIFIED','UNSPECIFIED');
#37=PERSON_AND_ORGANIZATION(#35,#36);
#38=PERSON_AND_ORGANIZATION_ROLE('creator');
#39=CC_DESIGN_PERSON_AND_ORGANIZATION_ASSIGNMENT(#37,#38,(#15,#1));
#40=AXIS2_PLACEMENT_3D('',#41,#42,#43);
#41=CARTESIAN_POINT('',(0.,0.,0.));
#42=DIRECTION('',(0.,0.,1.));
#43=DIRECTION('',(1.,0.,0.));
#44=PRODUCT_DEFINITION('','UNSPECIFIED',#62,#65);
#45=SHAPE_DEFINITION_REPRESENTATION(#60,#46);
#46=SHAPE_REPRESENTATION('NONE',(#4),#8);
#47=MANIFOLD_SOLID_BREP('',#48);
#48=CLOSED_SHELL('',(#109,#110,#111,#112,#113,#114,#115,#116,#117,#118,#119,#120,
#121,#122,#123,#124,#125,#126,#127,#128,#129));
#49=COLOUR_RGB('',0.564705882352941,0.564705882352941,0.564705882352941);
#50=FILL_AREA_STYLE_COLOUR('',#49);
#51=FILL_AREA_STYLE($,(#50));
#52=SURFACE_STYLE_FILL_AREA(#51);
#53=SURFACE_SIDE_STYLE('',(#52));
#54=SURFACE_STYLE_USAGE(.BOTH.,#53);
#55=PRESENTATION_STYLE_ASSIGNMENT((#54));
#56=MECHANICAL_DESIGN_GEOMETRIC_PRESENTATION_REPRESENTATION('NONE',(#57),#8);
#57=STYLED_ITEM('',(#55),#47);
#58=ADVANCED_BREP_SHAPE_REPRESENTATION('NONE',(#47),#8);
#59=SHAPE_REPRESENTATION_RELATIONSHIP('','',#46,#58);
#60=PRODUCT_DEFINITION_SHAPE('NONE','NONE',#44);
#61=MECHANICAL_CONTEXT('NONE',#66,'mechanical');
#62=PRODUCT_DEFINITION_FORMATION_WITH_SPECIFIED_SOURCE('ANY','UNSPECIFIED',#63,.NOT_KNOWN.);
#63=PRODUCT('','Handle','NONE',(#61));
#64=PRODUCT_RELATED_PRODUCT_CATEGORY('detail','',(#63));
#65=DESIGN_CONTEXT('detailed design',#66,'design');
#66=APPLICATION_CONTEXT('configuration controlled 3d designs of mechanical parts and assemblies');
#67=APPLICATION_PROTOCOL_DEFINITION('international standard','config_control_design',
1994,#66);
#68=CC_DESIGN_DATE_AND_TIME_ASSIGNMENT(#69,#73,(#44));
#69=DATE_AND_TIME(#70,#71);
#70=CALENDAR_DATE(0,1,1);
#71=LOCAL_TIME(0,0,0.,#72);
#72=COORDINATED_UNIVERSAL_TIME_OFFSET(0,0,.AHEAD.);
#73=DATE_TIME_ROLE('creation_date');
#74=CC_DESIGN_APPROVAL(#75,(#44));
#75=APPROVAL(#76,'UNSPECIFIED');
#76=APPROVAL_STATUS('not_yet_approved');
#77=APPROVAL_DATE_TIME(#78,#75);
#78=DATE_AND_TIME(#79,#80);
#79=CALENDAR_DATE(0,1,1);
#80=LOCAL_TIME(0,0,0.,#81);
#81=COORDINATED_UNIVERSAL_TIME_OFFSET(0,0,.AHEAD.);
#82=PERSON('UNSPECIFIED','tvali','UNSPECIFIED',('UNSPECIFIED'),('UNSPECIFIED'),(
'UNSPECIFIED'));
#83=ORGANIZATION('UNSPECIFIED','UNSPECIFIED','UNSPECIFIED');
#84=PERSON_AND_ORGANIZATION(#82,#83);
#85=PERSON_AND_ORGANIZATION_ROLE('creator');
#86=CC_DESIGN_PERSON_AND_ORGANIZATION_ASSIGNMENT(#84,#85,(#62,#44));
#87=ITEM_DEFINED_TRANSFORMATION('','',#4,#40);
#88=(REPRESENTATION_RELATIONSHIP('','',#46,#3)REPRESENTATION_RELATIONSHIP_WITH_TRANSFORMATION(
#87)SHAPE_REPRESENTATION_RELATIONSHIP());
#89=NEXT_ASSEMBLY_USAGE_OCCURRENCE('ANY','\X2\04210431043E0440043A0430\X0\','',#1,
#44,'');
#90=CC_DESIGN_SECURITY_CLASSIFICATION(#91,(#89));
#91=SECURITY_CLASSIFICATION('','',#92);
#92=SECURITY_CLASSIFICATION_LEVEL('unclassified');
#93=CC_DESIGN_DATE_AND_TIME_ASSIGNMENT(#94,#98,(#91));
#94=DATE_AND_TIME(#95,#96);
#95=CALENDAR_DATE(0,1,1);
#96=LOCAL_TIME(0,0,0.,#97);
#97=COORDINATED_UNIVERSAL_TIME_OFFSET(0,0,.AHEAD.);
#98=DATE_TIME_ROLE('classification_date');
#99=CC_DESIGN_APPROVAL(#100,(#91));
#100=APPROVAL(#101,'UNSPECIFIED');
#101=APPROVAL_STATUS('not_yet_approved');
#102=APPROVAL_DATE_TIME(#103,#100);
#103=DATE_AND_TIME(#104,#105);
#104=CALENDAR_DATE(0,1,1);
#105=LOCAL_TIME(0,0,0.,#106);
#106=COORDINATED_UNIVERSAL_TIME_OFFSET(0,0,.AHEAD.);
#107=PRODUCT_DEFINITION_SHAPE('NONE','NONE',#89);
#108=CONTEXT_DEPENDENT_SHAPE_REPRESENTATION(#88,#107);
#109=ADVANCED_FACE('',(#130,#132),#134,.F.);
#110=ADVANCED_FACE('',(#139,#141),#143,.T.);
#111=ADVANCED_FACE('',(#148,#150),#152,.F.);
#112=ADVANCED_FACE('',(#157,#159),#161,.T.);
#113=ADVANCED_FACE('',(#166,#168),#170,.T.);
#114=ADVANCED_FACE('',(#175,#177),#179,.F.);
#115=ADVANCED_FACE('',(#184,#186),#188,.F.);
#116=ADVANCED_FACE('',(#193,#195),#197,.T.);
#117=ADVANCED_FACE('',(#202,#204),#206,.T.);
#118=ADVANCED_FACE('',(#211,#213),#215,.F.);
#119=ADVANCED_FACE('',(#220,#222),#224,.T.);
#120=ADVANCED_FACE('',(#229,#231),#233,.T.);
#121=ADVANCED_FACE('',(#238,#240),#242,.F.);
#122=ADVANCED_FACE('',(#247,#249),#251,.F.);
#123=ADVANCED_FACE('',(#256,#258),#260,.T.);
#124=ADVANCED_FACE('',(#265,#267),#269,.T.);
#125=ADVANCED_FACE('',(#274,#276),#278,.F.);
#126=ADVANCED_FACE('',(#283,#285),#287,.T.);
#127=ADVANCED_FACE('',(#292,#294),#296,.T.);
#128=ADVANCED_FACE('',(#301,#303),#305,.T.);
#129=ADVANCED_FACE('',(#310,#312),#314,.T.);
#130=FACE_OUTER_BOUND('',#131,.T.);
#131=EDGE_LOOP('',(#319));
#132=FACE_OUTER_BOUND('',#133,.T.);
#133=EDGE_LOOP('',(#320));
#134=CYLINDRICAL_SURFACE('',#135,21.5);
#135=AXIS2_PLACEMENT_3D('',#136,#137,#138);
#136=CARTESIAN_POINT('',(0.,0.,17.));
#137=DIRECTION('',(0.,0.,1.));
#138=DIRECTION('',(1.452488064105E-16,-1.,0.));
#139=FACE_BOUND('',#140,.T.);
#140=EDGE_LOOP('',(#321));
#141=FACE_BOUND('',#142,.T.);
#142=EDGE_LOOP('',(#322));
#143=PLANE('',#144);
#144=AXIS2_PLACEMENT_3D('',#145,#146,#147);
#145=CARTESIAN_POINT('',(0.,0.,17.));
#146=DIRECTION('',(0.,0.,-1.));
#147=DIRECTION('',(1.452488064105E-16,-1.,0.));
#148=FACE_OUTER_BOUND('',#149,.T.);
#149=EDGE_LOOP('',(#323));
#150=FACE_OUTER_BOUND('',#151,.T.);
#151=EDGE_LOOP('',(#324));
#152=TOROIDAL_SURFACE('',#153,21.5,0.25);
#153=AXIS2_PLACEMENT_3D('',#154,#155,#156);
#154=CARTESIAN_POINT('',(3.12284933782575E-15,0.,17.));
#155=DIRECTION('',(0.,0.,1.));
#156=DIRECTION('',(-1.83456024470003E-32,-1.,0.));
#157=FACE_OUTER_BOUND('',#158,.T.);
#158=EDGE_LOOP('',(#325));
#159=FACE_OUTER_BOUND('',#160,.T.);
#160=EDGE_LOOP('',(#326));
#161=TOROIDAL_SURFACE('',#162,49.7668896903478,28.8);
#162=AXIS2_PLACEMENT_3D('',#163,#164,#165);
#163=CARTESIAN_POINT('',(0.,0.,20.6842999470889));
#164=DIRECTION('',(0.,0.,1.));
#165=DIRECTION('',(7.63488391993655E-17,-1.,0.));
#166=FACE_OUTER_BOUND('',#167,.T.);
#167=EDGE_LOOP('',(#327));
#168=FACE_OUTER_BOUND('',#169,.T.);
#169=EDGE_LOOP('',(#328));
#170=TOROIDAL_SURFACE('',#171,19.5,0.5);
#171=AXIS2_PLACEMENT_3D('',#172,#173,#174);
#172=CARTESIAN_POINT('',(0.,0.,17.5));
#173=DIRECTION('',(0.,0.,1.));
#174=DIRECTION('',(1.64856299885221E-16,-1.,0.));
#175=FACE_OUTER_BOUND('',#176,.T.);
#176=EDGE_LOOP('',(#329));
#177=FACE_OUTER_BOUND('',#178,.T.);
#178=EDGE_LOOP('',(#330));
#179=TOROIDAL_SURFACE('',#180,24.9071106408153,0.5);
#180=AXIS2_PLACEMENT_3D('',#181,#182,#183);
#181=CARTESIAN_POINT('',(0.,0.,5.17683769150293));
#182=DIRECTION('',(0.,0.,1.));
#183=DIRECTION('',(3.81806492934717E-17,-1.,0.));
#184=FACE_OUTER_BOUND('',#185,.T.);
#185=EDGE_LOOP('',(#331));
#186=FACE_OUTER_BOUND('',#187,.T.);
#187=EDGE_LOOP('',(#332));
#188=CYLINDRICAL_SURFACE('',#189,19.);
#189=AXIS2_PLACEMENT_3D('',#190,#191,#192);
#190=CARTESIAN_POINT('',(0.,0.,28.));
#191=DIRECTION('',(0.,0.,1.));
#192=DIRECTION('',(2.70711397706257E-16,-1.,0.));
#193=FACE_OUTER_BOUND('',#194,.T.);
#194=EDGE_LOOP('',(#333));
#195=FACE_OUTER_BOUND('',#196,.T.);
#196=EDGE_LOOP('',(#334));
#197=TOROIDAL_SURFACE('',#198,26.5,2.00000000000006);
#198=AXIS2_PLACEMENT_3D('',#199,#200,#201);
#199=CARTESIAN_POINT('',(0.,0.,3.24999999999997));
#200=DIRECTION('',(0.,0.,1.));
#201=DIRECTION('',(2.2528879795635E-17,-1.,0.));
#202=FACE_BOUND('',#203,.T.);
#203=EDGE_LOOP('',(#335));
#204=FACE_BOUND('',#205,.T.);
#205=EDGE_LOOP('',(#336));
#206=PLANE('',#207);
#207=AXIS2_PLACEMENT_3D('',#208,#209,#210);
#208=CARTESIAN_POINT('',(0.,0.,28.));
#209=DIRECTION('',(0.,0.,1.));
#210=DIRECTION('',(2.6109221098573E-16,-1.,0.));
#211=FACE_OUTER_BOUND('',#212,.T.);
#212=EDGE_LOOP('',(#337));
#213=FACE_OUTER_BOUND('',#214,.T.);
#214=EDGE_LOOP('',(#338));
#215=CONICAL_SURFACE('',#216,23.3994361257909,0.822418279271372);
#216=AXIS2_PLACEMENT_3D('',#217,#218,#219);
#217=CARTESIAN_POINT('',(0.,0.,3.10018685602625));
#218=DIRECTION('',(0.,0.,1.));
#219=DIRECTION('',(3.44578505807628E-17,-1.,0.));
#220=FACE_OUTER_BOUND('',#221,.T.);
#221=EDGE_LOOP('',(#339));
#222=FACE_OUTER_BOUND('',#223,.T.);
#223=EDGE_LOOP('',(#340));
#224=CONICAL_SURFACE('',#225,20.7366116523517,0.785398163397447);
#225=AXIS2_PLACEMENT_3D('',#226,#227,#228);
#226=CARTESIAN_POINT('',(0.,0.,26.9633883476483));
#227=DIRECTION('',(0.,0.,-1.));
#228=DIRECTION('',(-2.15498781854517E-16,1.,0.));
#229=FACE_OUTER_BOUND('',#230,.T.);
#230=EDGE_LOOP('',(#341));
#231=FACE_OUTER_BOUND('',#232,.T.);
#232=EDGE_LOOP('',(#342));
#233=TOROIDAL_SURFACE('',#234,22.,0.5);
#234=AXIS2_PLACEMENT_3D('',#235,#236,#237);
#235=CARTESIAN_POINT('',(0.,0.,1.11838998298673));
#236=DIRECTION('',(0.,0.,1.));
#237=DIRECTION('',(9.33840486043068E-18,-1.,0.));
#238=FACE_OUTER_BOUND('',#239,.T.);
#239=EDGE_LOOP('',(#343));
#240=FACE_OUTER_BOUND('',#241,.T.);
#241=EDGE_LOOP('',(#344));
#242=TOROIDAL_SURFACE('',#243,21.95,0.25);
#243=AXIS2_PLACEMENT_3D('',#244,#245,#246);
#244=CARTESIAN_POINT('',(4.73019826170665E-15,0.,25.75));
#245=DIRECTION('',(0.,0.,1.));
#246=DIRECTION('',(0.,-1.,0.));
#247=FACE_OUTER_BOUND('',#248,.T.);
#248=EDGE_LOOP('',(#345));
#249=FACE_OUTER_BOUND('',#250,.T.);
#250=EDGE_LOOP('',(#346));
#251=CYLINDRICAL_SURFACE('',#252,21.5);
#252=AXIS2_PLACEMENT_3D('',#253,#254,#255);
#253=CARTESIAN_POINT('',(0.,0.,1.11838998298673));
#254=DIRECTION('',(0.,0.,1.));
#255=DIRECTION('',(9.55557706648719E-18,-1.,0.));
#256=FACE_BOUND('',#257,.T.);
#257=EDGE_LOOP('',(#347));
#258=FACE_BOUND('',#259,.T.);
#259=EDGE_LOOP('',(#348));
#260=PLANE('',#261);
#261=AXIS2_PLACEMENT_3D('',#262,#263,#264);
#262=CARTESIAN_POINT('',(0.,0.,25.75));
#263=DIRECTION('',(0.,0.,1.));
#264=DIRECTION('',(2.01714211586638E-16,-1.,0.));
#265=FACE_OUTER_BOUND('',#266,.T.);
#266=EDGE_LOOP('',(#349));
#267=FACE_OUTER_BOUND('',#268,.T.);
#268=EDGE_LOOP('',(#350));
#269=TOROIDAL_SURFACE('',#270,22.,0.5);
#270=AXIS2_PLACEMENT_3D('',#271,#272,#273);
#271=CARTESIAN_POINT('',(0.,0.,0.500000000000001));
#272=DIRECTION('',(0.,0.,1.));
#273=DIRECTION('',(4.17493226982053E-18,-1.,0.));
#274=FACE_OUTER_BOUND('',#275,.T.);
#275=EDGE_LOOP('',(#351));
#276=FACE_OUTER_BOUND('',#277,.T.);
#277=EDGE_LOOP('',(#352));
#278=TOROIDAL_SURFACE('',#279,49.7668896903478,26.8);
#279=AXIS2_PLACEMENT_3D('',#280,#281,#282);
#280=CARTESIAN_POINT('',(0.,0.,20.6842999470889));
#281=DIRECTION('',(0.,0.,1.));
#282=DIRECTION('',(7.63488391993655E-17,-1.,0.));
#283=FACE_BOUND('',#284,.T.);
#284=EDGE_LOOP('',(#353));
#285=FACE_BOUND('',#286,.T.);
#286=EDGE_LOOP('',(#354));
#287=PLANE('',#288);
#288=AXIS2_PLACEMENT_3D('',#289,#290,#291);
#289=CARTESIAN_POINT('',(0.,0.,1.20226712653282E-17));
#290=DIRECTION('',(0.,0.,-1.));
#291=DIRECTION('',(9.68497766769368E-35,-1.,0.));
#292=FACE_OUTER_BOUND('',#293,.T.);
#293=EDGE_LOOP('',(#355));
#294=FACE_OUTER_BOUND('',#295,.T.);
#295=EDGE_LOOP('',(#356));
#296=TOROIDAL_SURFACE('',#297,24.9071106408153,2.5);
#297=AXIS2_PLACEMENT_3D('',#298,#299,#300);
#298=CARTESIAN_POINT('',(0.,0.,5.17683769150293));
#299=DIRECTION('',(0.,0.,1.));
#300=DIRECTION('',(3.81806492934717E-17,-1.,0.));
#301=FACE_OUTER_BOUND('',#302,.T.);
#302=EDGE_LOOP('',(#357));
#303=FACE_OUTER_BOUND('',#304,.T.);
#304=EDGE_LOOP('',(#358));
#305=TOROIDAL_SURFACE('',#306,22.8036548779022,0.5);
#306=AXIS2_PLACEMENT_3D('',#307,#308,#309);
#307=CARTESIAN_POINT('',(0.,0.,0.5));
#308=DIRECTION('',(0.,0.,1.));
#309=DIRECTION('',(4.02779775557194E-18,-1.,0.));
#310=FACE_OUTER_BOUND('',#311,.T.);
#311=EDGE_LOOP('',(#359));
#312=FACE_OUTER_BOUND('',#313,.T.);
#313=EDGE_LOOP('',(#360));
#314=CONICAL_SURFACE('',#315,24.8219402137929,0.822418279271379);
#315=AXIS2_PLACEMENT_3D('',#316,#317,#318);
#316=CARTESIAN_POINT('',(0.,0.,1.69180162709342));
#317=DIRECTION('',(0.,0.,1.));
#318=DIRECTION('',(1.06043235559092E-18,-1.,0.));
#319=ORIENTED_EDGE('',*,*,#361,.T.);
#320=ORIENTED_EDGE('',*,*,#362,.F.);
#321=ORIENTED_EDGE('',*,*,#363,.T.);
#322=ORIENTED_EDGE('',*,*,#364,.T.);
#323=ORIENTED_EDGE('',*,*,#363,.F.);
#324=ORIENTED_EDGE('',*,*,#361,.F.);
#325=ORIENTED_EDGE('',*,*,#362,.T.);
#326=ORIENTED_EDGE('',*,*,#365,.F.);
#327=ORIENTED_EDGE('',*,*,#366,.T.);
#328=ORIENTED_EDGE('',*,*,#364,.F.);
#329=ORIENTED_EDGE('',*,*,#367,.F.);
#330=ORIENTED_EDGE('',*,*,#365,.T.);
#331=ORIENTED_EDGE('',*,*,#368,.T.);
#332=ORIENTED_EDGE('',*,*,#366,.F.);
#333=ORIENTED_EDGE('',*,*,#369,.F.);
#334=ORIENTED_EDGE('',*,*,#367,.T.);
#335=ORIENTED_EDGE('',*,*,#370,.T.);
#336=ORIENTED_EDGE('',*,*,#368,.F.);
#337=ORIENTED_EDGE('',*,*,#371,.F.);
#338=ORIENTED_EDGE('',*,*,#369,.T.);
#339=ORIENTED_EDGE('',*,*,#370,.F.);
#340=ORIENTED_EDGE('',*,*,#372,.T.);
#341=ORIENTED_EDGE('',*,*,#373,.F.);
#342=ORIENTED_EDGE('',*,*,#371,.T.);
#343=ORIENTED_EDGE('',*,*,#372,.F.);
#344=ORIENTED_EDGE('',*,*,#374,.F.);
#345=ORIENTED_EDGE('',*,*,#373,.T.);
#346=ORIENTED_EDGE('',*,*,#375,.F.);
#347=ORIENTED_EDGE('',*,*,#376,.T.);
#348=ORIENTED_EDGE('',*,*,#374,.T.);
#349=ORIENTED_EDGE('',*,*,#375,.T.);
#350=ORIENTED_EDGE('',*,*,#377,.F.);
#351=ORIENTED_EDGE('',*,*,#376,.F.);
#352=ORIENTED_EDGE('',*,*,#378,.T.);
#353=ORIENTED_EDGE('',*,*,#379,.F.);
#354=ORIENTED_EDGE('',*,*,#377,.T.);
#355=ORIENTED_EDGE('',*,*,#380,.T.);
#356=ORIENTED_EDGE('',*,*,#378,.F.);
#357=ORIENTED_EDGE('',*,*,#379,.T.);
#358=ORIENTED_EDGE('',*,*,#381,.F.);
#359=ORIENTED_EDGE('',*,*,#381,.T.);
#360=ORIENTED_EDGE('',*,*,#380,.F.);
#361=EDGE_CURVE('',#382,#382,#383,.T.);
#362=EDGE_CURVE('',#384,#384,#385,.T.);
#363=EDGE_CURVE('',#386,#386,#387,.F.);
#364=EDGE_CURVE('',#388,#388,#389,.T.);
#365=EDGE_CURVE('',#390,#390,#391,.T.);
#366=EDGE_CURVE('',#392,#392,#393,.T.);
#367=EDGE_CURVE('',#394,#394,#395,.T.);
#368=EDGE_CURVE('',#396,#396,#397,.T.);
#369=EDGE_CURVE('',#398,#398,#399,.T.);
#370=EDGE_CURVE('',#400,#400,#401,.T.);
#371=EDGE_CURVE('',#402,#402,#403,.T.);
#372=EDGE_CURVE('',#404,#404,#405,.T.);
#373=EDGE_CURVE('',#406,#406,#407,.T.);
#374=EDGE_CURVE('',#408,#408,#409,.F.);
#375=EDGE_CURVE('',#410,#410,#411,.T.);
#376=EDGE_CURVE('',#412,#412,#413,.T.);
#377=EDGE_CURVE('',#414,#414,#415,.T.);
#378=EDGE_CURVE('',#416,#416,#417,.T.);
#379=EDGE_CURVE('',#418,#418,#419,.T.);
#380=EDGE_CURVE('',#420,#420,#421,.T.);
#381=EDGE_CURVE('',#422,#422,#423,.T.);
#382=VERTEX_POINT('',#424);
#383=CIRCLE('',#425,21.5);
#384=VERTEX_POINT('',#429);
#385=CIRCLE('',#430,21.5);
#386=VERTEX_POINT('',#434);
#387=CIRCLE('',#435,21.25);
#388=VERTEX_POINT('',#439);
#389=CIRCLE('',#440,19.5);
#390=VERTEX_POINT('',#444);
#391=CIRCLE('',#445,25.3313389522408);
#392=VERTEX_POINT('',#449);
#393=CIRCLE('',#450,19.);
#394=VERTEX_POINT('',#454);
#395=CIRCLE('',#455,25.2256885126522);
#396=VERTEX_POINT('',#459);
#397=CIRCLE('',#460,19.);
#398=VERTEX_POINT('',#464);
#399=CIRCLE('',#465,25.1390978012654);
#400=VERTEX_POINT('',#469);
#401=CIRCLE('',#470,19.7);
#402=VERTEX_POINT('',#474);
#403=CIRCLE('',#475,21.6597744503164);
#404=VERTEX_POINT('',#479);
#405=CIRCLE('',#480,21.7732233047034);
#406=VERTEX_POINT('',#484);
#407=CIRCLE('',#485,21.5);
#408=VERTEX_POINT('',#489);
#409=CIRCLE('',#490,22.2);
#410=VERTEX_POINT('',#494);
#411=CIRCLE('',#495,21.5);
#412=VERTEX_POINT('',#499);
#413=CIRCLE('',#500,23.45);
#414=VERTEX_POINT('',#504);
#415=CIRCLE('',#505,22.);
#416=VERTEX_POINT('',#509);
#417=CIRCLE('',#510,27.0282521979427);
#418=VERTEX_POINT('',#514);
#419=CIRCLE('',#515,22.8036548779022);
#420=VERTEX_POINT('',#519);
#421=CIRCLE('',#520,26.5);
#422=VERTEX_POINT('',#524);
#423=CIRCLE('',#525,23.1438804275858);
#424=CARTESIAN_POINT('',(8.80214886887159E-16,-21.5,16.75));
#425=AXIS2_PLACEMENT_3D('',#426,#427,#428);
#426=CARTESIAN_POINT('',(0.,0.,16.75));
#427=DIRECTION('',(0.,0.,1.));
#428=DIRECTION('',(1.452488064105E-16,-1.,0.));
#429=CARTESIAN_POINT('',(2.78642659352802E-15,-21.5,15.1685998796716));
#430=AXIS2_PLACEMENT_3D('',#431,#432,#433);
#431=CARTESIAN_POINT('',(0.,0.,15.1685998796716));
#432=DIRECTION('',(0.,0.,1.));
#433=DIRECTION('',(7.63488391993655E-17,-1.,0.));
#434=CARTESIAN_POINT('',(3.12284933782575E-15,-21.25,17.));
#435=AXIS2_PLACEMENT_3D('',#436,#437,#438);
#436=CARTESIAN_POINT('',(3.12284933782575E-15,0.,17.));
#437=DIRECTION('',(0.,0.,1.));
#438=DIRECTION('',(-2.46519032881566E-32,-1.,0.));
#439=CARTESIAN_POINT('',(3.12284933782575E-15,-19.5,17.));
#440=AXIS2_PLACEMENT_3D('',#441,#442,#443);
#441=CARTESIAN_POINT('',(0.,0.,17.));
#442=DIRECTION('',(0.,0.,1.));
#443=DIRECTION('',(1.452488064105E-16,-1.,0.));
#444=CARTESIAN_POINT('',(9.99581850866266E-16,-25.3313389522408,5.44147015320234));
#445=AXIS2_PLACEMENT_3D('',#446,#447,#448);
#446=CARTESIAN_POINT('',(0.,0.,5.44147015320234));
#447=DIRECTION('',(0.,0.,1.));
#448=DIRECTION('',(3.81806492934717E-17,-1.,0.));
#449=CARTESIAN_POINT('',(3.2146978477618E-15,-19.,17.5));
#450=AXIS2_PLACEMENT_3D('',#451,#452,#453);
#451=CARTESIAN_POINT('',(0.,0.,17.5));
#452=DIRECTION('',(0.,0.,1.));
#453=DIRECTION('',(1.64856299885221E-16,-1.,0.));
#454=CARTESIAN_POINT('',(8.801787879494E-16,-25.2256885126522,4.79147015320235));
#455=AXIS2_PLACEMENT_3D('',#456,#457,#458);
#456=CARTESIAN_POINT('',(0.,0.,4.79147015320234));
#457=DIRECTION('',(0.,0.,1.));
#458=DIRECTION('',(2.2528879795635E-17,-1.,0.));
#459=CARTESIAN_POINT('',(5.14351655641888E-15,-19.,28.));
#460=AXIS2_PLACEMENT_3D('',#461,#462,#463);
#461=CARTESIAN_POINT('',(0.,0.,28.));
#462=DIRECTION('',(0.,0.,1.));
#463=DIRECTION('',(2.6109221098573E-16,-1.,0.));
#464=CARTESIAN_POINT('',(8.66239275771187E-16,-25.1390978012654,4.71558698325262));
#465=AXIS2_PLACEMENT_3D('',#466,#467,#468);
#466=CARTESIAN_POINT('',(0.,0.,4.71558698325262));
#467=DIRECTION('',(0.,0.,1.));
#468=DIRECTION('',(3.44578505807628E-17,-1.,0.));
#469=CARTESIAN_POINT('',(5.14351655641888E-15,-19.7,28.));
#470=AXIS2_PLACEMENT_3D('',#471,#472,#473);
#471=CARTESIAN_POINT('',(0.,0.,28.));
#472=DIRECTION('',(0.,0.,1.));
#473=DIRECTION('',(2.6109221098573E-16,-1.,0.));
#474=CARTESIAN_POINT('',(2.72750897226187E-16,-21.6597744503164,1.48478672879988));
#475=AXIS2_PLACEMENT_3D('',#476,#477,#478);
#476=CARTESIAN_POINT('',(0.,0.,1.48478672879988));
#477=DIRECTION('',(0.,0.,1.));
#478=DIRECTION('',(9.33840486043068E-18,-1.,0.));
#479=CARTESIAN_POINT('',(2.631212745137E-15,-21.7732233047034,25.9267766952966));
#480=AXIS2_PLACEMENT_3D('',#481,#482,#483);
#481=CARTESIAN_POINT('',(0.,0.,25.9267766952966));
#482=DIRECTION('',(0.,0.,1.));
#483=DIRECTION('',(2.15498781854517E-16,-1.,0.));
#484=CARTESIAN_POINT('',(2.05444906929475E-16,-21.5,1.11838998298673));
#485=AXIS2_PLACEMENT_3D('',#486,#487,#488);
#486=CARTESIAN_POINT('',(0.,0.,1.11838998298673));
#487=DIRECTION('',(0.,0.,1.));
#488=DIRECTION('',(9.55557706648719E-18,-1.,0.));
#489=CARTESIAN_POINT('',(2.01148236759953E-15,-22.2,25.75));
#490=AXIS2_PLACEMENT_3D('',#491,#492,#493);
#491=CARTESIAN_POINT('',(4.73019826170665E-15,0.,25.75));
#492=DIRECTION('',(0.,0.,1.));
#493=DIRECTION('',(2.01714211586638E-16,-1.,0.));
#494=CARTESIAN_POINT('',(9.18485099360517E-17,-21.5,0.500000000000001));
#495=AXIS2_PLACEMENT_3D('',#496,#497,#498);
#496=CARTESIAN_POINT('',(0.,0.,0.500000000000001));
#497=DIRECTION('',(0.,0.,1.));
#498=DIRECTION('',(4.17493226982053E-18,-1.,0.));
#499=CARTESIAN_POINT('',(4.73019826170665E-15,-23.45,25.75));
#500=AXIS2_PLACEMENT_3D('',#501,#502,#503);
#501=CARTESIAN_POINT('',(0.,0.,25.75));
#502=DIRECTION('',(0.,0.,1.));
#503=DIRECTION('',(2.01714211586638E-16,-1.,0.));
#504=CARTESIAN_POINT('',(9.77968954566354E-32,-22.,5.32381502567246E-16));
#505=AXIS2_PLACEMENT_3D('',#506,#507,#508);
#506=CARTESIAN_POINT('',(0.,0.,1.20226712653282E-17));
#507=DIRECTION('',(0.,0.,1.));
#508=DIRECTION('',(9.68497766769368E-35,-1.,0.));
#509=CARTESIAN_POINT('',(1.19403062916867E-15,-27.0282521979427,6.49999999999998));
#510=AXIS2_PLACEMENT_3D('',#511,#512,#513);
#511=CARTESIAN_POINT('',(0.,0.,6.49999999999999));
#512=DIRECTION('',(0.,0.,1.));
#513=DIRECTION('',(7.63488391993655E-17,-1.,0.));
#514=CARTESIAN_POINT('',(3.60099764413785E-32,-22.8036548779022,1.96029181455693E-16));
#515=AXIS2_PLACEMENT_3D('',#516,#517,#518);
#516=CARTESIAN_POINT('',(0.,0.,1.20226712653282E-17));
#517=DIRECTION('',(0.,0.,1.));
#518=DIRECTION('',(9.68497766769368E-35,-1.,0.));
#519=CARTESIAN_POINT('',(5.97015314584337E-16,-26.5,3.25000000000001));
#520=AXIS2_PLACEMENT_3D('',#521,#522,#523);
#521=CARTESIAN_POINT('',(0.,0.,3.25000000000003));
#522=DIRECTION('',(0.,0.,1.));
#523=DIRECTION('',(3.81806492934717E-17,-1.,0.));
#524=CARTESIAN_POINT('',(2.45425196393394E-17,-23.1438804275858,0.13360325418685));
#525=AXIS2_PLACEMENT_3D('',#526,#527,#528);
#526=CARTESIAN_POINT('',(0.,0.,0.13360325418685));
#527=DIRECTION('',(0.,0.,1.));
#528=DIRECTION('',(1.06043235559092E-18,-1.,0.));
ENDSEC;
END-ISO-10303-21;
