ISO-10303-21;
HEADER;
FILE_DESCRIPTION(('STEP AP203'),
    '1');
FILE_NAME('SpaceMouse',
    '2026-03-09T23:13:23',
    ('tvali'),
    (''),
    'C3D Converter',
    'C3D Toolkit',
    '');
/**/
FILE_SCHEMA(('CONFIG_CONTROL_DESIGN'));
ENDSEC;

DATA;
#1=PRODUCT_DEFINITION('','UNSPECIFIED',#15,#18);
#2=SHAPE_DEFINITION_REPRESENTATION(#13,#3);
#3=SHAPE_REPRESENTATION('NONE',(#4,#40),#8);
#4=AXIS2_PLACEMENT_3D('',#5,#6,#7);
#5=CARTESIAN_POINT('',(0.,0.,0.));
#6=DIRECTION('',(0.,0.,1.));
#7=DIRECTION('',(1.,0.,0.));
#8=(GEOMETRIC_REPRESENTATION_CONTEXT(3)GLOBAL_UNCERTAINTY_ASSIGNED_CONTEXT((#10))
GLOBAL_UNIT_ASSIGNED_CONTEXT((#9,#11,#12))REPRESENTATION_CONTEXT('NONE','NONE'));
#9=(LENGTH_UNIT()NAMED_UNIT(*)SI_UNIT(.MILLI.,.METRE.));
#10=UNCERTAINTY_MEASURE_WITH_UNIT(LENGTH_MEASURE(1.E-5),#9,'NONE','NONE');
#11=(NAMED_UNIT(*)PLANE_ANGLE_UNIT()SI_UNIT($,.RADIAN.));
#12=(NAMED_UNIT(*)SI_UNIT($,.STERADIAN.)SOLID_ANGLE_UNIT());
#13=PRODUCT_DEFINITION_SHAPE('NONE','NONE',#1);
#14=MECHANICAL_CONTEXT('NONE',#19,'mechanical');
#15=PRODUCT_DEFINITION_FORMATION_WITH_SPECIFIED_SOURCE('ANY','UNSPECIFIED',#16,.NOT_KNOWN.);
#16=PRODUCT('','\X2\04210431043E0440043A0430\X0\','NONE',(#14));
#17=PRODUCT_RELATED_PRODUCT_CATEGORY('assembly','',(#16));
#18=DESIGN_CONTEXT('detailed design',#19,'design');
#19=APPLICATION_CONTEXT('configuration controlled 3d designs of mechanical parts and assemblies');
#20=APPLICATION_PROTOCOL_DEFINITION('international standard','config_control_design',
1994,#19);
#21=CC_DESIGN_DATE_AND_TIME_ASSIGNMENT(#22,#26,(#1));
#22=DATE_AND_TIME(#23,#24);
#23=CALENDAR_DATE(0,1,1);
#24=LOCAL_TIME(0,0,0.,#25);
#25=COORDINATED_UNIVERSAL_TIME_OFFSET(0,0,.AHEAD.);
#26=DATE_TIME_ROLE('creation_date');
#27=CC_DESIGN_APPROVAL(#28,(#1));
#28=APPROVAL(#29,'UNSPECIFIED');
#29=APPROVAL_STATUS('not_yet_approved');
#30=APPROVAL_DATE_TIME(#31,#28);
#31=DATE_AND_TIME(#32,#33);
#32=CALENDAR_DATE(0,1,1);
#33=LOCAL_TIME(0,0,0.,#34);
#34=COORDINATED_UNIVERSAL_TIME_OFFSET(0,0,.AHEAD.);
#35=PERSON('UNSPECIFIED','tvali','UNSPECIFIED',('UNSPECIFIED'),('UNSPECIFIED'),(
'UNSPECIFIED'));
#36=ORGANIZATION('UNSPECIFIED','UNSPECIFIED','UNSPECIFIED');
#37=PERSON_AND_ORGANIZATION(#35,#36);
#38=PERSON_AND_ORGANIZATION_ROLE('creator');
#39=CC_DESIGN_PERSON_AND_ORGANIZATION_ASSIGNMENT(#37,#38,(#15,#1));
#40=AXIS2_PLACEMENT_3D('',#41,#42,#43);
#41=CARTESIAN_POINT('',(0.,0.,0.));
#42=DIRECTION('',(0.,0.,1.));
#43=DIRECTION('',(1.,0.,0.));
#44=PRODUCT_DEFINITION('','UNSPECIFIED',#72,#75);
#45=SHAPE_DEFINITION_REPRESENTATION(#70,#46);
#46=SHAPE_REPRESENTATION('NONE',(#4),#8);
#47=MANIFOLD_SOLID_BREP('',#48);
#48=CLOSED_SHELL('',(#119,#120,#121,#122,#123));
#49=COLOUR_RGB('',0.564705882352941,0.564705882352941,0.564705882352941);
#50=FILL_AREA_STYLE_COLOUR('',#49);
#51=FILL_AREA_STYLE($,(#50));
#52=SURFACE_STYLE_FILL_AREA(#51);
#53=SURFACE_SIDE_STYLE('',(#52));
#54=SURFACE_STYLE_USAGE(.BOTH.,#53);
#55=PRESENTATION_STYLE_ASSIGNMENT((#54));
#56=MECHANICAL_DESIGN_GEOMETRIC_PRESENTATION_REPRESENTATION('NONE',(#57,#67),#8);
#57=STYLED_ITEM('',(#55),#47);
#58=MANIFOLD_SOLID_BREP('',#59);
#59=CLOSED_SHELL('',(#124,#125,#126,#127,#128));
#60=COLOUR_RGB('',0.564705882352941,0.564705882352941,0.564705882352941);
#61=FILL_AREA_STYLE_COLOUR('',#60);
#62=FILL_AREA_STYLE($,(#61));
#63=SURFACE_STYLE_FILL_AREA(#62);
#64=SURFACE_SIDE_STYLE('',(#63));
#65=SURFACE_STYLE_USAGE(.BOTH.,#64);
#66=PRESENTATION_STYLE_ASSIGNMENT((#65));
#67=STYLED_ITEM('',(#66),#58);
#68=ADVANCED_BREP_SHAPE_REPRESENTATION('NONE',(#47,#58),#8);
#69=SHAPE_REPRESENTATION_RELATIONSHIP('','',#46,#68);
#70=PRODUCT_DEFINITION_SHAPE('NONE','NONE',#44);
#71=MECHANICAL_CONTEXT('NONE',#76,'mechanical');
#72=PRODUCT_DEFINITION_FORMATION_WITH_SPECIFIED_SOURCE('ANY','UNSPECIFIED',#73,.NOT_KNOWN.);
#73=PRODUCT('','HandleCap','NONE',(#71));
#74=PRODUCT_RELATED_PRODUCT_CATEGORY('detail','',(#73));
#75=DESIGN_CONTEXT('detailed design',#76,'design');
#76=APPLICATION_CONTEXT('configuration controlled 3d designs of mechanical parts and assemblies');
#77=APPLICATION_PROTOCOL_DEFINITION('international standard','config_control_design',
1994,#76);
#78=CC_DESIGN_DATE_AND_TIME_ASSIGNMENT(#79,#83,(#44));
#79=DATE_AND_TIME(#80,#81);
#80=CALENDAR_DATE(0,1,1);
#81=LOCAL_TIME(0,0,0.,#82);
#82=COORDINATED_UNIVERSAL_TIME_OFFSET(0,0,.AHEAD.);
#83=DATE_TIME_ROLE('creation_date');
#84=CC_DESIGN_APPROVAL(#85,(#44));
#85=APPROVAL(#86,'UNSPECIFIED');
#86=APPROVAL_STATUS('not_yet_approved');
#87=APPROVAL_DATE_TIME(#88,#85);
#88=DATE_AND_TIME(#89,#90);
#89=CALENDAR_DATE(0,1,1);
#90=LOCAL_TIME(0,0,0.,#91);
#91=COORDINATED_UNIVERSAL_TIME_OFFSET(0,0,.AHEAD.);
#92=PERSON('UNSPECIFIED','tvali','UNSPECIFIED',('UNSPECIFIED'),('UNSPECIFIED'),(
'UNSPECIFIED'));
#93=ORGANIZATION('UNSPECIFIED','UNSPECIFIED','UNSPECIFIED');
#94=PERSON_AND_ORGANIZATION(#92,#93);
#95=PERSON_AND_ORGANIZATION_ROLE('creator');
#96=CC_DESIGN_PERSON_AND_ORGANIZATION_ASSIGNMENT(#94,#95,(#72,#44));
#97=ITEM_DEFINED_TRANSFORMATION('','',#4,#40);
#98=(REPRESENTATION_RELATIONSHIP('','',#46,#3)REPRESENTATION_RELATIONSHIP_WITH_TRANSFORMATION(
#97)SHAPE_REPRESENTATION_RELATIONSHIP());
#99=NEXT_ASSEMBLY_USAGE_OCCURRENCE('ANY','\X2\04210431043E0440043A0430\X0\','',#1,
#44,'');
#100=CC_DESIGN_SECURITY_CLASSIFICATION(#101,(#99));
#101=SECURITY_CLASSIFICATION('','',#102);
#102=SECURITY_CLASSIFICATION_LEVEL('unclassified');
#103=CC_DESIGN_DATE_AND_TIME_ASSIGNMENT(#104,#108,(#101));
#104=DATE_AND_TIME(#105,#106);
#105=CALENDAR_DATE(0,1,1);
#106=LOCAL_TIME(0,0,0.,#107);
#107=COORDINATED_UNIVERSAL_TIME_OFFSET(0,0,.AHEAD.);
#108=DATE_TIME_ROLE('classification_date');
#109=CC_DESIGN_APPROVAL(#110,(#101));
#110=APPROVAL(#111,'UNSPECIFIED');
#111=APPROVAL_STATUS('not_yet_approved');
#112=APPROVAL_DATE_TIME(#113,#110);
#113=DATE_AND_TIME(#114,#115);
#114=CALENDAR_DATE(0,1,1);
#115=LOCAL_TIME(0,0,0.,#116);
#116=COORDINATED_UNIVERSAL_TIME_OFFSET(0,0,.AHEAD.);
#117=PRODUCT_DEFINITION_SHAPE('NONE','NONE',#99);
#118=CONTEXT_DEPENDENT_SHAPE_REPRESENTATION(#98,#117);
#119=ADVANCED_FACE('',(#129),#131,.T.);
#120=ADVANCED_FACE('',(#136,#138),#140,.T.);
#121=ADVANCED_FACE('',(#145,#147),#149,.T.);
#122=ADVANCED_FACE('',(#154,#156),#158,.F.);
#123=ADVANCED_FACE('',(#163),#165,.T.);
#124=ADVANCED_FACE('',(#170,#172),#174,.T.);
#125=ADVANCED_FACE('',(#179),#181,.T.);
#126=ADVANCED_FACE('',(#186,#188),#190,.T.);
#127=ADVANCED_FACE('',(#195,#197),#199,.F.);
#128=ADVANCED_FACE('',(#204),#206,.T.);
#129=FACE_OUTER_BOUND('',#130,.T.);
#130=EDGE_LOOP('',(#211));
#131=SPHERICAL_SURFACE('',#132,165.431510015589);
#132=AXIS2_PLACEMENT_3D('',#133,#134,#135);
#133=CARTESIAN_POINT('',(0.,0.,-135.218754891547));
#134=DIRECTION('',(0.,0.,1.));
#135=DIRECTION('',(1.,-2.7895605188532E-16,0.));
#136=FACE_OUTER_BOUND('',#137,.T.);
#137=EDGE_LOOP('',(#212));
#138=FACE_OUTER_BOUND('',#139,.T.);
#139=EDGE_LOOP('',(#213));
#140=CYLINDRICAL_SURFACE('',#141,21.9506702723109);
#141=AXIS2_PLACEMENT_3D('',#142,#143,#144);
#142=CARTESIAN_POINT('',(0.,0.,28.));
#143=DIRECTION('',(0.,0.,1.));
#144=DIRECTION('',(1.,-7.81072057270621E-17,0.));
#145=FACE_BOUND('',#146,.T.);
#146=EDGE_LOOP('',(#214));
#147=FACE_BOUND('',#148,.T.);
#148=EDGE_LOOP('',(#215));
#149=PLANE('',#150);
#150=AXIS2_PLACEMENT_3D('',#151,#152,#153);
#151=CARTESIAN_POINT('',(0.,0.,28.));
#152=DIRECTION('',(0.,0.,-1.));
#153=DIRECTION('',(1.,-7.81072057270621E-17,0.));
#154=FACE_OUTER_BOUND('',#155,.T.);
#155=EDGE_LOOP('',(#216));
#156=FACE_OUTER_BOUND('',#157,.T.);
#157=EDGE_LOOP('',(#217));
#158=CYLINDRICAL_SURFACE('',#159,7.99999999999997);
#159=AXIS2_PLACEMENT_3D('',#160,#161,#162);
#160=CARTESIAN_POINT('',(0.,0.,29.));
#161=DIRECTION('',(0.,0.,1.));
#162=DIRECTION('',(1.,-2.21967232345459E-16,0.));
#163=FACE_BOUND('',#164,.T.);
#164=EDGE_LOOP('',(#218));
#165=PLANE('',#166);
#166=AXIS2_PLACEMENT_3D('',#167,#168,#169);
#167=CARTESIAN_POINT('',(0.,0.,29.));
#168=DIRECTION('',(0.,0.,-1.));
#169=DIRECTION('',(1.,-2.21967232345459E-16,0.));
#170=FACE_OUTER_BOUND('',#171,.T.);
#171=EDGE_LOOP('',(#219));
#172=FACE_OUTER_BOUND('',#173,.T.);
#173=EDGE_LOOP('',(#220));
#174=CONICAL_SURFACE('',#175,5.87544420350826,0.558505360638185);
#175=AXIS2_PLACEMENT_3D('',#176,#177,#178);
#176=CARTESIAN_POINT('',(0.,0.,25.6));
#177=DIRECTION('',(0.,0.,1.));
#178=DIRECTION('',(-1.,2.21967232345459E-16,0.));
#179=FACE_BOUND('',#180,.T.);
#180=EDGE_LOOP('',(#221));
#181=PLANE('',#182);
#182=AXIS2_PLACEMENT_3D('',#183,#184,#185);
#183=CARTESIAN_POINT('',(0.,0.,29.));
#184=DIRECTION('',(0.,0.,1.));
#185=DIRECTION('',(1.,-2.21967232345459E-16,0.));
#186=FACE_BOUND('',#187,.T.);
#187=EDGE_LOOP('',(#222));
#188=FACE_BOUND('',#189,.T.);
#189=EDGE_LOOP('',(#223));
#190=PLANE('',#191);
#191=AXIS2_PLACEMENT_3D('',#192,#193,#194);
#192=CARTESIAN_POINT('',(0.,0.,22.2));
#193=DIRECTION('',(0.,0.,-1.));
#194=DIRECTION('',(1.,-1.69919743381696E-16,0.));
#195=FACE_OUTER_BOUND('',#196,.T.);
#196=EDGE_LOOP('',(#224));
#197=FACE_OUTER_BOUND('',#198,.T.);
#198=EDGE_LOOP('',(#225));
#199=CYLINDRICAL_SURFACE('',#200,2.99999999999999);
#200=AXIS2_PLACEMENT_3D('',#201,#202,#203);
#201=CARTESIAN_POINT('',(0.,0.,24.7));
#202=DIRECTION('',(0.,0.,1.));
#203=DIRECTION('',(1.,-5.04146265648995E-16,0.));
#204=FACE_BOUND('',#205,.T.);
#205=EDGE_LOOP('',(#226));
#206=PLANE('',#207);
#207=AXIS2_PLACEMENT_3D('',#208,#209,#210);
#208=CARTESIAN_POINT('',(0.,0.,24.7));
#209=DIRECTION('',(0.,0.,-1.));
#210=DIRECTION('',(1.,-5.04146265648995E-16,0.));
#211=ORIENTED_EDGE('',*,*,#227,.T.);
#212=ORIENTED_EDGE('',*,*,#227,.F.);
#213=ORIENTED_EDGE('',*,*,#228,.T.);
#214=ORIENTED_EDGE('',*,*,#228,.F.);
#215=ORIENTED_EDGE('',*,*,#229,.T.);
#216=ORIENTED_EDGE('',*,*,#230,.T.);
#217=ORIENTED_EDGE('',*,*,#229,.F.);
#218=ORIENTED_EDGE('',*,*,#230,.F.);
#219=ORIENTED_EDGE('',*,*,#231,.F.);
#220=ORIENTED_EDGE('',*,*,#232,.T.);
#221=ORIENTED_EDGE('',*,*,#231,.T.);
#222=ORIENTED_EDGE('',*,*,#232,.F.);
#223=ORIENTED_EDGE('',*,*,#233,.T.);
#224=ORIENTED_EDGE('',*,*,#234,.T.);
#225=ORIENTED_EDGE('',*,*,#233,.F.);
#226=ORIENTED_EDGE('',*,*,#234,.F.);
#227=EDGE_CURVE('',#235,#235,#236,.T.);
#228=EDGE_CURVE('',#237,#237,#238,.T.);
#229=EDGE_CURVE('',#239,#239,#240,.T.);
#230=EDGE_CURVE('',#241,#241,#242,.T.);
#231=EDGE_CURVE('',#243,#243,#244,.T.);
#232=EDGE_CURVE('',#245,#245,#246,.T.);
#233=EDGE_CURVE('',#247,#247,#248,.T.);
#234=EDGE_CURVE('',#249,#249,#250,.T.);
#235=VERTEX_POINT('',#251);
#236=CIRCLE('',#252,21.9506702722908);
#237=VERTEX_POINT('',#256);
#238=CIRCLE('',#257,21.9506702723109);
#239=VERTEX_POINT('',#261);
#240=CIRCLE('',#262,7.99999999999998);
#241=VERTEX_POINT('',#266);
#242=CIRCLE('',#267,7.99999999999997);
#243=VERTEX_POINT('',#271);
#244=CIRCLE('',#272,7.99999999999997);
#245=VERTEX_POINT('',#276);
#246=CIRCLE('',#277,3.75088840701654);
#247=VERTEX_POINT('',#281);
#248=CIRCLE('',#282,2.99999999999999);
#249=VERTEX_POINT('',#286);
#250=CIRCLE('',#287,2.99999999999999);
#251=CARTESIAN_POINT('',(21.9506702723009,-1.76042977376976E-15,28.7499999999255));
#252=AXIS2_PLACEMENT_3D('',#253,#254,#255);
#253=CARTESIAN_POINT('',(0.,0.,28.749999999851));
#254=DIRECTION('',(0.,0.,1.));
#255=DIRECTION('',(1.,-2.7895605188532E-16,0.));
#256=CARTESIAN_POINT('',(21.9506702723109,-1.71450551880629E-15,28.));
#257=AXIS2_PLACEMENT_3D('',#258,#259,#260);
#258=CARTESIAN_POINT('',(0.,0.,28.));
#259=DIRECTION('',(0.,0.,1.));
#260=DIRECTION('',(1.,-7.81072057270621E-17,0.));
#261=CARTESIAN_POINT('',(7.99999999999997,-2.33907538637144E-15,28.));
#262=AXIS2_PLACEMENT_3D('',#263,#264,#265);
#263=CARTESIAN_POINT('',(0.,0.,28.));
#264=DIRECTION('',(0.,0.,1.));
#265=DIRECTION('',(1.,-7.81072057270621E-17,0.));
#266=CARTESIAN_POINT('',(7.99999999999997,-1.77573785876366E-15,29.));
#267=AXIS2_PLACEMENT_3D('',#268,#269,#270);
#268=CARTESIAN_POINT('',(0.,0.,29.));
#269=DIRECTION('',(0.,0.,1.));
#270=DIRECTION('',(1.,-2.21967232345459E-16,0.));
#271=CARTESIAN_POINT('',(7.99999999999997,-1.77573785876366E-15,29.));
#272=AXIS2_PLACEMENT_3D('',#273,#274,#275);
#273=CARTESIAN_POINT('',(0.,0.,29.));
#274=DIRECTION('',(0.,0.,1.));
#275=DIRECTION('',(1.,-2.21967232345459E-16,0.));
#276=CARTESIAN_POINT('',(3.75088840701654,-3.38159277326698E-16,22.2));
#277=AXIS2_PLACEMENT_3D('',#278,#279,#280);
#278=CARTESIAN_POINT('',(0.,0.,22.2));
#279=DIRECTION('',(0.,0.,1.));
#280=DIRECTION('',(1.,-1.69919743381696E-16,0.));
#281=CARTESIAN_POINT('',(2.99999999999999,-1.35935794705356E-15,22.2));
#282=AXIS2_PLACEMENT_3D('',#283,#284,#285);
#283=CARTESIAN_POINT('',(0.,0.,22.2));
#284=DIRECTION('',(0.,0.,1.));
#285=DIRECTION('',(1.,-1.69919743381696E-16,0.));
#286=CARTESIAN_POINT('',(2.99999999999999,-1.51243879694698E-15,24.7));
#287=AXIS2_PLACEMENT_3D('',#288,#289,#290);
#288=CARTESIAN_POINT('',(0.,0.,24.7));
#289=DIRECTION('',(0.,0.,1.));
#290=DIRECTION('',(1.,-5.04146265648995E-16,0.));
ENDSEC;
END-ISO-10303-21;
