ISO-10303-21;
HEADER;
FILE_DESCRIPTION(('STEP AP203'),
    '1');
FILE_NAME('SpaceMouse',
    '2026-03-09T23:13:43',
    ('tvali'),
    (''),
    'C3D Converter',
    'C3D Toolkit',
    '');
/**/
FILE_SCHEMA(('CONFIG_CONTROL_DESIGN'));
ENDSEC;

DATA;
#1=PRODUCT_DEFINITION('','UNSPECIFIED',#15,#18);
#2=SHAPE_DEFINITION_REPRESENTATION(#13,#3);
#3=SHAPE_REPRESENTATION('NONE',(#4,#40),#8);
#4=AXIS2_PLACEMENT_3D('',#5,#6,#7);
#5=CARTESIAN_POINT('',(0.,0.,0.));
#6=DIRECTION('',(0.,0.,1.));
#7=DIRECTION('',(1.,0.,0.));
#8=(GEOMETRIC_REPRESENTATION_CONTEXT(3)GLOBAL_UNCERTAINTY_ASSIGNED_CONTEXT((#10))
GLOBAL_UNIT_ASSIGNED_CONTEXT((#9,#11,#12))REPRESENTATION_CONTEXT('NONE','NONE'));
#9=(LENGTH_UNIT()NAMED_UNIT(*)SI_UNIT(.MILLI.,.METRE.));
#10=UNCERTAINTY_MEASURE_WITH_UNIT(LENGTH_MEASURE(1.E-5),#9,'NONE','NONE');
#11=(NAMED_UNIT(*)PLANE_ANGLE_UNIT()SI_UNIT($,.RADIAN.));
#12=(NAMED_UNIT(*)SI_UNIT($,.STERADIAN.)SOLID_ANGLE_UNIT());
#13=PRODUCT_DEFINITION_SHAPE('NONE','NONE',#1);
#14=MECHANICAL_CONTEXT('NONE',#19,'mechanical');
#15=PRODUCT_DEFINITION_FORMATION_WITH_SPECIFIED_SOURCE('ANY','UNSPECIFIED',#16,.NOT_KNOWN.);
#16=PRODUCT('','\X2\04210431043E0440043A0430\X0\','NONE',(#14));
#17=PRODUCT_RELATED_PRODUCT_CATEGORY('assembly','',(#16));
#18=DESIGN_CONTEXT('detailed design',#19,'design');
#19=APPLICATION_CONTEXT('configuration controlled 3d designs of mechanical parts and assemblies');
#20=APPLICATION_PROTOCOL_DEFINITION('international standard','config_control_design',
1994,#19);
#21=CC_DESIGN_DATE_AND_TIME_ASSIGNMENT(#22,#26,(#1));
#22=DATE_AND_TIME(#23,#24);
#23=CALENDAR_DATE(0,1,1);
#24=LOCAL_TIME(0,0,0.,#25);
#25=COORDINATED_UNIVERSAL_TIME_OFFSET(0,0,.AHEAD.);
#26=DATE_TIME_ROLE('creation_date');
#27=CC_DESIGN_APPROVAL(#28,(#1));
#28=APPROVAL(#29,'UNSPECIFIED');
#29=APPROVAL_STATUS('not_yet_approved');
#30=APPROVAL_DATE_TIME(#31,#28);
#31=DATE_AND_TIME(#32,#33);
#32=CALENDAR_DATE(0,1,1);
#33=LOCAL_TIME(0,0,0.,#34);
#34=COORDINATED_UNIVERSAL_TIME_OFFSET(0,0,.AHEAD.);
#35=PERSON('UNSPECIFIED','tvali','UNSPECIFIED',('UNSPECIFIED'),('UNSPECIFIED'),(
'UNSPECIFIED'));
#36=ORGANIZATION('UNSPECIFIED','UNSPECIFIED','UNSPECIFIED');
#37=PERSON_AND_ORGANIZATION(#35,#36);
#38=PERSON_AND_ORGANIZATION_ROLE('creator');
#39=CC_DESIGN_PERSON_AND_ORGANIZATION_ASSIGNMENT(#37,#38,(#15,#1));
#40=AXIS2_PLACEMENT_3D('',#41,#42,#43);
#41=CARTESIAN_POINT('',(2.25090747406985E-15,-5.30061785900857E-16,25.75));
#42=DIRECTION('',(0.,0.,1.));
#43=DIRECTION('',(1.,0.,0.));
#44=PRODUCT_DEFINITION('','UNSPECIFIED',#62,#65);
#45=SHAPE_DEFINITION_REPRESENTATION(#60,#46);
#46=SHAPE_REPRESENTATION('NONE',(#4),#8);
#47=MANIFOLD_SOLID_BREP('',#48);
#48=CLOSED_SHELL('',(#109,#110,#111,#112,#113,#114));
#49=COLOUR_RGB('',0.564705882352941,0.564705882352941,0.564705882352941);
#50=FILL_AREA_STYLE_COLOUR('',#49);
#51=FILL_AREA_STYLE($,(#50));
#52=SURFACE_STYLE_FILL_AREA(#51);
#53=SURFACE_SIDE_STYLE('',(#52));
#54=SURFACE_STYLE_USAGE(.BOTH.,#53);
#55=PRESENTATION_STYLE_ASSIGNMENT((#54));
#56=MECHANICAL_DESIGN_GEOMETRIC_PRESENTATION_REPRESENTATION('NONE',(#57),#8);
#57=STYLED_ITEM('',(#55),#47);
#58=ADVANCED_BREP_SHAPE_REPRESENTATION('NONE',(#47),#8);
#59=SHAPE_REPRESENTATION_RELATIONSHIP('','',#46,#58);
#60=PRODUCT_DEFINITION_SHAPE('NONE','NONE',#44);
#61=MECHANICAL_CONTEXT('NONE',#66,'mechanical');
#62=PRODUCT_DEFINITION_FORMATION_WITH_SPECIFIED_SOURCE('ANY','UNSPECIFIED',#63,.NOT_KNOWN.);
#63=PRODUCT('','HandleRing','NONE',(#61));
#64=PRODUCT_RELATED_PRODUCT_CATEGORY('detail','',(#63));
#65=DESIGN_CONTEXT('detailed design',#66,'design');
#66=APPLICATION_CONTEXT('configuration controlled 3d designs of mechanical parts and assemblies');
#67=APPLICATION_PROTOCOL_DEFINITION('international standard','config_control_design',
1994,#66);
#68=CC_DESIGN_DATE_AND_TIME_ASSIGNMENT(#69,#73,(#44));
#69=DATE_AND_TIME(#70,#71);
#70=CALENDAR_DATE(0,1,1);
#71=LOCAL_TIME(0,0,0.,#72);
#72=COORDINATED_UNIVERSAL_TIME_OFFSET(0,0,.AHEAD.);
#73=DATE_TIME_ROLE('creation_date');
#74=CC_DESIGN_APPROVAL(#75,(#44));
#75=APPROVAL(#76,'UNSPECIFIED');
#76=APPROVAL_STATUS('not_yet_approved');
#77=APPROVAL_DATE_TIME(#78,#75);
#78=DATE_AND_TIME(#79,#80);
#79=CALENDAR_DATE(0,1,1);
#80=LOCAL_TIME(0,0,0.,#81);
#81=COORDINATED_UNIVERSAL_TIME_OFFSET(0,0,.AHEAD.);
#82=PERSON('UNSPECIFIED','tvali','UNSPECIFIED',('UNSPECIFIED'),('UNSPECIFIED'),(
'UNSPECIFIED'));
#83=ORGANIZATION('UNSPECIFIED','UNSPECIFIED','UNSPECIFIED');
#84=PERSON_AND_ORGANIZATION(#82,#83);
#85=PERSON_AND_ORGANIZATION_ROLE('creator');
#86=CC_DESIGN_PERSON_AND_ORGANIZATION_ASSIGNMENT(#84,#85,(#62,#44));
#87=ITEM_DEFINED_TRANSFORMATION('','',#4,#40);
#88=(REPRESENTATION_RELATIONSHIP('','',#46,#3)REPRESENTATION_RELATIONSHIP_WITH_TRANSFORMATION(
#87)SHAPE_REPRESENTATION_RELATIONSHIP());
#89=NEXT_ASSEMBLY_USAGE_OCCURRENCE('ANY','\X2\04210431043E0440043A0430\X0\','',#1,
#44,'');
#90=CC_DESIGN_SECURITY_CLASSIFICATION(#91,(#89));
#91=SECURITY_CLASSIFICATION('','',#92);
#92=SECURITY_CLASSIFICATION_LEVEL('unclassified');
#93=CC_DESIGN_DATE_AND_TIME_ASSIGNMENT(#94,#98,(#91));
#94=DATE_AND_TIME(#95,#96);
#95=CALENDAR_DATE(0,1,1);
#96=LOCAL_TIME(0,0,0.,#97);
#97=COORDINATED_UNIVERSAL_TIME_OFFSET(0,0,.AHEAD.);
#98=DATE_TIME_ROLE('classification_date');
#99=CC_DESIGN_APPROVAL(#100,(#91));
#100=APPROVAL(#101,'UNSPECIFIED');
#101=APPROVAL_STATUS('not_yet_approved');
#102=APPROVAL_DATE_TIME(#103,#100);
#103=DATE_AND_TIME(#104,#105);
#104=CALENDAR_DATE(0,1,1);
#105=LOCAL_TIME(0,0,0.,#106);
#106=COORDINATED_UNIVERSAL_TIME_OFFSET(0,0,.AHEAD.);
#107=PRODUCT_DEFINITION_SHAPE('NONE','NONE',#89);
#108=CONTEXT_DEPENDENT_SHAPE_REPRESENTATION(#88,#107);
#109=ADVANCED_FACE('',(#115,#117),#119,.F.);
#110=ADVANCED_FACE('',(#124,#126),#128,.T.);
#111=ADVANCED_FACE('',(#133,#135),#137,.F.);
#112=ADVANCED_FACE('',(#142,#144),#146,.F.);
#113=ADVANCED_FACE('',(#151,#153),#155,.F.);
#114=ADVANCED_FACE('',(#160,#162),#164,.T.);
#115=FACE_OUTER_BOUND('',#116,.T.);
#116=EDGE_LOOP('',(#169));
#117=FACE_OUTER_BOUND('',#118,.T.);
#118=EDGE_LOOP('',(#170));
#119=CONICAL_SURFACE('',#120,20.825,0.78539816339745);
#120=AXIS2_PLACEMENT_3D('',#121,#122,#123);
#121=CARTESIAN_POINT('',(0.,0.,1.125));
#122=DIRECTION('',(0.,0.,-1.));
#123=DIRECTION('',(1.,7.47803533543089E-17,0.));
#124=FACE_BOUND('',#125,.T.);
#125=EDGE_LOOP('',(#171));
#126=FACE_BOUND('',#127,.T.);
#127=EDGE_LOOP('',(#172));
#128=PLANE('',#129);
#129=AXIS2_PLACEMENT_3D('',#130,#131,#132);
#130=CARTESIAN_POINT('',(0.,0.,1.31450153564946E-15));
#131=DIRECTION('',(0.,0.,-1.));
#132=DIRECTION('',(1.,7.78305234967672E-17,0.));
#133=FACE_OUTER_BOUND('',#134,.T.);
#134=EDGE_LOOP('',(#173));
#135=FACE_OUTER_BOUND('',#136,.T.);
#136=EDGE_LOOP('',(#174));
#137=SURFACE_OF_REVOLUTION('',#138,#139);
#138=(BOUNDED_CURVE()B_SPLINE_CURVE(2,
(#175,#176,#177),
.UNSPECIFIED.,.F.,.F.)B_SPLINE_CURVE_WITH_KNOTS((3,3),
(0.,1.),
.UNSPECIFIED.)CURVE()GEOMETRIC_REPRESENTATION_ITEM()RATIONAL_B_SPLINE_CURVE((1.,
1.77370763876718,1.))REPRESENTATION_ITEM(''));
#139=AXIS1_PLACEMENT('',#140,#141);
#140=CARTESIAN_POINT('',(0.,0.,0.));
#141=DIRECTION('',(0.,0.,-1.));
#142=FACE_OUTER_BOUND('',#143,.T.);
#143=EDGE_LOOP('',(#178));
#144=FACE_OUTER_BOUND('',#145,.T.);
#145=EDGE_LOOP('',(#179));
#146=CYLINDRICAL_SURFACE('',#147,21.9506702723109);
#147=AXIS2_PLACEMENT_3D('',#148,#149,#150);
#148=CARTESIAN_POINT('',(0.,0.,2.5));
#149=DIRECTION('',(0.,0.,-1.));
#150=DIRECTION('',(1.,6.78079517596878E-17,0.));
#151=FACE_OUTER_BOUND('',#152,.T.);
#152=EDGE_LOOP('',(#180));
#153=FACE_OUTER_BOUND('',#154,.T.);
#154=EDGE_LOOP('',(#181));
#155=TOROIDAL_SURFACE('',#156,21.8635761791482,0.2);
#156=AXIS2_PLACEMENT_3D('',#157,#158,#159);
#157=CARTESIAN_POINT('',(0.,0.,2.31995939646407));
#158=DIRECTION('',(0.,0.,-1.));
#159=DIRECTION('',(1.,6.80944570055182E-17,0.));
#160=FACE_BOUND('',#161,.T.);
#161=EDGE_LOOP('',(#182));
#162=FACE_BOUND('',#163,.T.);
#163=EDGE_LOOP('',(#183));
#164=PLANE('',#165);
#165=AXIS2_PLACEMENT_3D('',#166,#167,#168);
#166=CARTESIAN_POINT('',(0.,0.,2.25));
#167=DIRECTION('',(0.,0.,1.));
#168=DIRECTION('',(1.,6.78221167430894E-17,0.));
#169=ORIENTED_EDGE('',*,*,#184,.T.);
#170=ORIENTED_EDGE('',*,*,#185,.F.);
#171=ORIENTED_EDGE('',*,*,#186,.T.);
#172=ORIENTED_EDGE('',*,*,#184,.F.);
#173=ORIENTED_EDGE('',*,*,#186,.F.);
#174=ORIENTED_EDGE('',*,*,#187,.T.);
#175=CARTESIAN_POINT('',(23.4500000000001,1.8251257759992E-15,-6.83197349952866E-16));
#176=CARTESIAN_POINT('',(23.9752942872633,1.72235493667727E-15,2.72896375002159));
#177=CARTESIAN_POINT('',(21.9506702723109,1.45781382093899E-15,3.));
#178=ORIENTED_EDGE('',*,*,#187,.F.);
#179=ORIENTED_EDGE('',*,*,#188,.T.);
#180=ORIENTED_EDGE('',*,*,#188,.F.);
#181=ORIENTED_EDGE('',*,*,#189,.T.);
#182=ORIENTED_EDGE('',*,*,#189,.F.);
#183=ORIENTED_EDGE('',*,*,#185,.T.);
#184=EDGE_CURVE('',#190,#190,#191,.T.);
#185=EDGE_CURVE('',#192,#192,#193,.T.);
#186=EDGE_CURVE('',#194,#194,#195,.T.);
#187=EDGE_CURVE('',#196,#196,#197,.T.);
#188=EDGE_CURVE('',#198,#198,#199,.T.);
#189=EDGE_CURVE('',#200,#200,#201,.T.);
#190=VERTEX_POINT('',#202);
#191=CIRCLE('',#203,21.95);
#192=VERTEX_POINT('',#207);
#193=CIRCLE('',#208,19.7);
#194=VERTEX_POINT('',#212);
#195=CIRCLE('',#213,23.4500000000001);
#196=VERTEX_POINT('',#217);
#197=CIRCLE('',#218,21.9506702723109);
#198=VERTEX_POINT('',#222);
#199=CIRCLE('',#223,21.9506702723109);
#200=VERTEX_POINT('',#227);
#201=CIRCLE('',#228,21.676211073496);
#202=CARTESIAN_POINT('',(21.95,1.64142875612708E-15,1.31450153564946E-15));
#203=AXIS2_PLACEMENT_3D('',#204,#205,#206);
#204=CARTESIAN_POINT('',(0.,0.,1.31450153564946E-15));
#205=DIRECTION('',(0.,0.,-1.));
#206=DIRECTION('',(1.,7.78305234967672E-17,0.));
#207=CARTESIAN_POINT('',(19.7,1.22811046141485E-15,2.25));
#208=AXIS2_PLACEMENT_3D('',#209,#210,#211);
#209=CARTESIAN_POINT('',(0.,0.,2.25));
#210=DIRECTION('',(0.,0.,-1.));
#211=DIRECTION('',(1.,6.78221167430894E-17,0.));
#212=CARTESIAN_POINT('',(23.4500000000001,1.8251257759992E-15,-6.83197349952866E-16));
#213=AXIS2_PLACEMENT_3D('',#214,#215,#216);
#214=CARTESIAN_POINT('',(0.,0.,1.31450153564946E-15));
#215=DIRECTION('',(0.,0.,-1.));
#216=DIRECTION('',(1.,7.78305234967672E-17,0.));
#217=CARTESIAN_POINT('',(21.9506702723109,1.45781382093899E-15,3.));
#218=AXIS2_PLACEMENT_3D('',#219,#220,#221);
#219=CARTESIAN_POINT('',(0.,0.,3.));
#220=DIRECTION('',(0.,0.,-1.));
#221=DIRECTION('',(1.,6.64131802288474E-17,0.));
#222=CARTESIAN_POINT('',(21.9506702723188,1.48842999091764E-15,2.50000000001642));
#223=AXIS2_PLACEMENT_3D('',#224,#225,#226);
#224=CARTESIAN_POINT('',(0.,0.,2.5));
#225=DIRECTION('',(0.,0.,-1.));
#226=DIRECTION('',(1.,6.78079517596878E-17,0.));
#227=CARTESIAN_POINT('',(21.6762110734605,1.47012651797096E-15,2.24999999998675));
#228=AXIS2_PLACEMENT_3D('',#229,#230,#231);
#229=CARTESIAN_POINT('',(0.,0.,2.25));
#230=DIRECTION('',(0.,0.,-1.));
#231=DIRECTION('',(1.,6.78221167430894E-17,0.));
ENDSEC;
END-ISO-10303-21;
